<!DOCTYPE svg PUBLIC "-//W3C//DTD SVG 1.1//EN" "http://www.w3.org/Graphics/SVG/1.1/DTD/svg11.dtd">
<!-- Uploaded to: SVG Repo, www.svgrepo.com, Transformed by: SVG Repo Mixer Tools -->
<svg fill="#84b9d4" width="800px" height="800px" viewBox="-2 -2 24.00 24.00" xmlns="http://www.w3.org/2000/svg" stroke="#84b9d4" transform="matrix(1, 0, 0, 1, 0, 0)rotate(0)">
<g id="SVGRepo_bgCarrier" stroke-width="0" transform="translate(0,0), scale(1)">
<path transform="translate(-2, -2), scale(1.5)" fill="#daeaf2" d="M9.166.33a2.25 2.25 0 00-2.332 0l-5.25 3.182A2.25 2.25 0 00.5 5.436v5.128a2.25 2.25 0 001.084 1.924l5.25 3.182a2.25 2.25 0 002.332 0l5.25-3.182a2.25 2.25 0 001.084-1.924V5.436a2.25 2.25 0 00-1.084-1.924L9.166.33z" strokewidth="0"/>
</g>
<g id="SVGRepo_tracerCarrier" stroke-linecap="round" stroke-linejoin="round" stroke="#CCCCCC" stroke-width="0.24"/>
<g id="SVGRepo_iconCarrier">
<path d="M3.302 12.238c.464 1.879 1.054 2.701 3.022 3.562 1.969.86 2.904 1.8 3.676 1.8.771 0 1.648-.822 3.616-1.684 1.969-.861 1.443-1.123 1.907-3.002L10 15.6l-6.698-3.362zm16.209-4.902l-8.325-4.662c-.652-.365-1.72-.365-2.372 0L.488 7.336c-.652.365-.652.963 0 1.328l8.325 4.662c.652.365 1.72.365 2.372 0l5.382-3.014-5.836-1.367a3.09 3.09 0 0 1-.731.086c-1.052 0-1.904-.506-1.904-1.131 0-.627.853-1.133 1.904-1.133.816 0 1.51.307 1.78.734l6.182 2.029 1.549-.867c.651-.364.651-.962 0-1.327zm-2.544 8.834c-.065.385 1.283 1.018 1.411-.107.579-5.072-.416-6.531-.416-6.531l-1.395.781c0-.001 1.183 1.125.4 5.857z"/>
</g>
</svg>