<svg id="svg" version="1.1" xmlns="http://www.w3.org/2000/svg" xmlns:xlink="http://www.w3.org/1999/xlink" width="400" height="375.2" viewBox="0, 0, 400,375.2"><g id="svgg"><path id="path0" d="M317.824 102.451 C 317.308 102.620,315.535 103.047,313.884 103.398 C 312.233 103.750,310.434 104.353,309.886 104.739 C 309.338 105.125,308.663 105.445,308.385 105.449 C 308.107 105.454,307.458 105.788,306.942 106.191 C 306.426 106.595,305.679 106.929,305.283 106.933 C 304.886 106.938,304.259 107.216,303.889 107.551 C 303.519 107.886,302.215 108.688,300.991 109.333 C 298.738 110.521,292.409 116.137,292.598 116.780 C 292.655 116.972,292.548 117.034,292.360 116.918 C 291.982 116.684,288.565 119.750,282.707 125.579 C 277.925 130.337,270.169 140.015,270.169 141.225 C 270.169 141.499,269.904 142.254,269.581 142.902 C 269.258 143.550,269.115 144.278,269.264 144.518 C 269.426 144.781,269.372 144.856,269.128 144.705 C 268.900 144.564,268.605 144.827,268.456 145.304 C 268.310 145.771,267.707 147.213,267.116 148.508 C 266.525 149.803,266.041 151.102,266.041 151.394 C 266.041 151.687,265.872 152.030,265.666 152.158 C 265.460 152.285,265.291 152.705,265.291 153.091 C 265.291 153.476,264.874 154.119,264.365 154.520 C 263.856 154.920,263.514 155.322,263.605 155.412 C 263.695 155.503,263.056 155.619,262.185 155.670 C 261.313 155.721,260.440 155.922,260.244 156.118 C 260.048 156.313,259.604 156.473,259.258 156.473 C 258.912 156.473,258.415 156.730,258.154 157.045 C 257.893 157.359,257.601 157.539,257.506 157.443 C 257.411 157.348,256.239 157.851,254.902 158.560 C 253.565 159.270,252.319 159.850,252.134 159.850 C 251.949 159.850,250.908 160.525,249.820 161.350 C 248.732 162.175,247.320 163.099,246.682 163.403 C 245.547 163.944,243.795 165.414,237.711 170.929 C 230.856 177.143,224.765 183.672,224.765 184.806 C 224.765 185.138,224.617 185.319,224.436 185.207 C 224.151 185.030,222.139 187.630,222.139 188.175 C 222.139 188.285,221.632 188.905,221.013 189.553 C 220.394 190.200,219.887 190.901,219.887 191.108 C 219.887 191.316,219.465 192.040,218.949 192.716 C 218.433 193.393,218.008 194.169,218.003 194.440 C 217.998 194.712,217.664 195.356,217.261 195.872 C 216.857 196.388,216.519 197.064,216.510 197.373 C 216.501 197.683,216.163 198.358,215.760 198.874 C 215.356 199.390,215.022 200.351,215.018 201.010 C 215.013 201.668,214.863 202.298,214.684 202.408 C 214.504 202.519,214.242 203.484,214.100 204.553 C 213.958 205.622,213.556 207.019,213.206 207.657 C 212.449 209.039,212.309 222.322,213.031 224.244 C 213.863 226.459,213.964 226.869,214.115 228.646 C 214.199 229.644,214.471 230.826,214.718 231.272 C 214.965 231.718,215.123 232.298,215.069 232.561 C 215.016 232.825,215.318 233.526,215.741 234.120 C 216.164 234.714,216.510 235.359,216.510 235.554 C 216.510 236.209,217.688 238.274,218.061 238.274 C 218.264 238.274,218.332 238.433,218.212 238.628 C 218.092 238.822,218.588 239.912,219.316 241.049 C 220.043 242.186,220.638 243.230,220.638 243.370 C 220.638 243.510,221.187 244.269,221.857 245.057 C 222.528 245.845,223.480 247.017,223.973 247.663 C 224.466 248.308,225.563 249.269,226.412 249.798 C 227.261 250.326,228.435 251.331,229.023 252.031 C 230.126 253.346,234.173 256.285,234.881 256.285 C 235.102 256.285,235.575 256.439,235.934 256.628 C 237.509 257.456,240.836 258.872,242.214 259.300 C 243.039 259.556,244.053 259.893,244.465 260.047 C 249.479 261.923,266.753 261.442,271.464 259.295 C 272.380 258.878,273.284 258.537,273.473 258.537 C 273.661 258.537,274.895 258.011,276.214 257.368 C 281.105 254.984,282.227 254.320,285.398 251.933 C 286.880 250.818,288.281 249.906,288.511 249.906 C 288.742 249.906,288.931 249.737,288.931 249.531 C 288.931 249.325,289.142 249.154,289.400 249.151 C 289.658 249.149,290.629 248.420,291.557 247.532 C 292.486 246.644,293.541 245.807,293.902 245.672 C 294.264 245.537,294.559 245.168,294.559 244.852 C 294.559 244.536,294.756 244.278,294.997 244.278 C 295.238 244.278,295.935 243.813,296.546 243.246 C 299.010 240.957,305.066 234.698,305.066 234.440 C 305.066 234.288,306.014 233.189,307.172 231.997 C 308.331 230.806,309.681 228.958,310.172 227.890 C 310.663 226.823,311.304 225.711,311.595 225.419 C 312.557 224.457,314.705 220.853,315.227 219.325 C 315.509 218.499,316.039 217.421,316.406 216.929 C 316.773 216.437,317.077 215.592,317.082 215.053 C 317.086 214.513,317.420 213.649,317.824 213.133 C 318.227 212.617,318.561 211.732,318.566 211.166 C 318.576 209.861,319.951 208.255,321.059 208.255 C 321.525 208.255,322.011 208.086,322.139 207.880 C 322.266 207.674,322.701 207.505,323.104 207.505 C 323.508 207.505,324.173 207.336,324.583 207.129 C 324.993 206.923,325.664 206.585,326.074 206.379 C 326.484 206.173,327.080 206.004,327.400 206.004 C 328.199 206.004,331.464 204.316,334.032 202.575 C 335.207 201.778,336.347 201.126,336.565 201.126 C 336.782 201.126,336.961 200.983,336.961 200.810 C 336.961 200.636,337.578 200.171,338.332 199.778 C 339.892 198.963,340.216 198.689,344.519 194.534 C 346.244 192.869,347.950 191.397,348.311 191.262 C 348.673 191.128,348.968 190.759,348.968 190.443 C 348.968 190.127,349.225 189.869,349.539 189.869 C 350.271 189.869,355.347 184.779,355.347 184.045 C 355.347 183.739,355.572 183.490,355.846 183.490 C 356.121 183.490,356.866 182.772,357.503 181.895 C 358.139 181.018,359.349 179.589,360.193 178.720 C 361.036 177.851,361.726 177.045,361.726 176.930 C 361.726 176.815,362.180 176.006,362.736 175.133 C 363.995 173.154,367.355 166.607,367.355 166.133 C 367.355 165.940,367.670 165.334,368.056 164.786 C 368.442 164.238,368.874 163.368,369.018 162.852 C 369.161 162.336,369.417 161.576,369.587 161.163 C 370.667 158.539,370.766 157.066,370.625 145.779 C 370.447 131.495,370.017 129.712,364.744 121.382 C 364.219 120.553,363.621 119.601,363.415 119.266 C 360.857 115.114,354.457 108.524,351.876 107.386 C 351.102 107.044,350.469 106.636,350.469 106.478 C 350.469 106.320,350.256 106.191,349.996 106.191 C 349.736 106.191,347.959 105.432,346.048 104.503 C 344.001 103.508,342.046 102.814,341.290 102.814 C 340.584 102.814,339.902 102.645,339.775 102.439 C 339.493 101.983,319.217 101.994,317.824 102.451 M82.076 104.307 C 79.210 104.455,77.107 104.732,76.841 104.997 C 76.597 105.241,75.772 105.441,75.007 105.441 C 73.819 105.441,70.758 106.650,70.169 107.353 C 70.066 107.476,69.517 107.690,68.949 107.829 C 68.382 107.968,67.917 108.332,67.917 108.638 C 67.917 108.943,67.774 109.193,67.600 109.193 C 66.371 109.193,63.039 114.385,63.039 116.301 C 63.039 117.041,62.685 117.680,61.914 118.329 C 61.295 118.850,60.788 119.456,60.788 119.676 C 60.788 119.895,60.645 120.033,60.471 119.981 C 60.079 119.865,56.660 123.427,56.660 123.951 C 56.660 124.160,56.381 124.640,56.040 125.016 C 54.335 126.901,52.921 142.608,54.376 143.507 C 54.565 143.623,54.831 144.380,54.967 145.188 C 55.258 146.909,57.182 150.774,58.093 151.466 C 60.060 152.962,64.089 151.529,65.195 148.941 C 65.844 147.423,65.875 147.404,67.355 147.653 C 68.180 147.792,69.447 147.986,70.169 148.085 C 70.891 148.184,71.820 148.418,72.233 148.606 C 72.645 148.794,73.657 148.995,74.481 149.052 C 75.953 149.154,76.003 149.206,77.452 152.158 C 78.262 153.809,79.095 155.497,79.303 155.910 C 79.687 156.674,80.192 158.681,80.556 160.885 C 80.667 161.558,80.909 162.201,81.092 162.315 C 81.276 162.428,81.426 163.434,81.426 164.551 C 81.426 165.850,81.683 167.038,82.138 167.850 C 82.530 168.547,82.942 170.030,83.054 171.145 C 83.480 175.382,84.000 178.188,85.132 182.364 C 85.776 184.737,86.303 187.134,86.303 187.689 C 86.304 188.244,86.473 188.803,86.679 188.931 C 86.886 189.058,87.054 189.485,87.054 189.879 C 87.054 190.274,87.392 191.198,87.805 191.932 C 88.218 192.667,88.555 193.533,88.555 193.856 C 88.555 194.179,88.911 194.942,89.345 195.552 C 89.802 196.194,90.051 196.978,89.936 197.416 C 89.795 197.956,90.218 198.671,91.422 199.928 C 92.348 200.894,93.306 202.107,93.552 202.624 C 93.798 203.142,94.380 203.732,94.846 203.937 C 95.311 204.141,95.788 204.648,95.906 205.062 C 96.401 206.808,97.229 208.156,98.663 209.551 C 99.524 210.388,100.188 211.390,100.188 211.850 C 100.188 212.885,100.776 213.348,102.481 213.654 C 103.227 213.789,104.140 214.233,104.509 214.641 C 104.964 215.144,105.663 215.385,106.666 215.385 L 108.150 215.385 107.974 216.792 C 107.873 217.599,108.022 218.643,108.323 219.241 C 108.612 219.815,108.884 221.123,108.927 222.149 C 108.970 223.175,109.132 224.015,109.287 224.015 C 109.442 224.015,109.568 224.343,109.568 224.743 C 109.568 225.144,109.719 225.565,109.904 225.679 C 110.089 225.793,110.342 226.563,110.467 227.390 C 110.592 228.217,110.796 229.562,110.920 230.380 C 111.044 231.197,111.372 232.054,111.648 232.283 C 111.924 232.513,112.055 232.950,111.938 233.255 C 111.821 233.560,112.065 234.181,112.480 234.634 C 114.880 237.259,112.492 241.235,109.122 240.226 C 108.439 240.022,106.360 239.643,104.503 239.384 C 102.645 239.124,100.965 238.769,100.769 238.593 C 100.107 238.000,93.953 238.210,93.428 238.844 C 92.951 239.418,91.723 240.035,89.306 240.916 C 87.568 241.549,85.644 243.386,85.359 244.684 C 85.233 245.257,84.888 245.928,84.591 246.174 C 82.749 247.703,86.995 252.463,88.868 250.968 C 90.910 249.339,91.921 249.477,91.944 251.388 C 91.977 253.974,95.601 255.284,98.394 253.719 C 99.724 252.974,103.389 252.287,102.420 252.964 C 102.037 253.232,102.375 253.274,103.565 253.107 C 104.493 252.976,105.414 252.709,105.610 252.514 C 105.806 252.318,106.270 252.158,106.642 252.158 C 107.013 252.158,107.317 251.989,107.317 251.782 C 107.317 251.576,107.729 251.407,108.233 251.407 C 108.737 251.407,109.253 251.238,109.381 251.032 C 109.893 250.204,111.820 250.604,111.820 251.539 C 111.820 253.729,115.885 255.822,117.330 254.377 C 117.853 253.854,121.097 253.756,124.157 254.170 C 125.690 254.377,126.470 254.363,126.326 254.130 C 126.195 253.918,126.486 253.840,127.028 253.944 C 127.669 254.067,127.955 254.369,127.955 254.922 C 127.956 256.549,129.442 257.624,132.342 258.097 C 137.523 258.941,138.886 258.600,141.217 255.877 C 143.545 253.158,148.910 251.869,151.323 253.450 C 152.620 254.300,157.794 254.294,162.017 253.437 C 165.932 252.643,166.707 248.946,163.660 245.598 C 161.576 243.308,153.082 240.906,152.187 242.353 C 152.043 242.586,151.429 242.777,150.822 242.777 C 149.385 242.777,149.331 241.483,150.658 238.867 C 151.173 237.852,151.595 236.710,151.595 236.329 C 151.595 235.948,151.790 235.259,152.028 234.798 C 152.267 234.336,152.584 233.705,152.733 233.396 C 153.059 232.720,159.408 232.676,160.738 233.340 C 161.178 233.560,162.552 233.818,163.790 233.914 C 170.901 234.466,175.056 235.613,175.937 237.269 C 176.273 237.901,177.265 239.205,178.143 240.167 C 179.020 241.129,179.737 242.091,179.737 242.304 C 179.737 242.966,184.625 247.300,186.064 247.914 C 186.815 248.235,187.732 248.651,188.102 248.839 C 188.471 249.027,188.921 249.090,189.101 248.978 C 189.282 248.867,189.486 248.914,189.555 249.082 C 189.741 249.534,193.662 251.407,194.423 251.407 C 194.783 251.407,195.182 251.576,195.310 251.782 C 195.437 251.989,197.082 252.158,198.965 252.158 C 200.848 252.158,203.893 252.351,205.732 252.586 C 212.103 253.403,215.385 252.177,215.385 248.980 C 215.385 247.596,214.606 246.651,210.024 242.479 C 209.037 241.579,208.255 240.534,208.255 240.113 C 208.255 239.263,205.420 234.897,204.868 234.897 C 204.299 234.897,199.930 230.810,196.174 226.764 C 195.825 226.387,194.771 225.319,193.832 224.390 C 192.894 223.462,192.125 222.522,192.123 222.303 C 192.121 222.084,191.824 221.578,191.463 221.178 C 191.102 220.778,190.411 219.606,189.930 218.574 C 187.785 213.982,187.334 213.159,185.467 210.440 C 184.380 208.856,183.490 207.294,183.490 206.970 C 183.490 206.645,183.341 206.379,183.158 206.379 C 182.976 206.379,182.732 206.083,182.617 205.722 C 182.501 205.361,181.809 204.053,181.078 202.814 C 180.347 201.576,179.479 199.972,179.149 199.250 C 178.818 198.527,178.299 197.514,177.995 196.998 C 177.690 196.482,177.119 195.385,176.726 194.559 C 176.333 193.734,175.499 192.467,174.873 191.745 C 174.247 191.023,173.735 190.220,173.734 189.962 C 173.734 189.705,173.565 189.493,173.358 189.493 C 173.152 189.493,172.983 189.155,172.983 188.741 C 172.983 188.328,172.097 186.820,171.013 185.391 C 169.930 183.962,168.114 181.418,166.979 179.737 C 165.844 178.056,164.367 176.039,163.696 175.255 C 163.025 174.472,162.477 173.676,162.477 173.488 C 162.477 173.299,161.542 172.222,160.399 171.094 C 159.257 169.966,157.883 168.410,157.346 167.636 C 156.810 166.862,156.140 166.229,155.859 166.229 C 155.577 166.229,155.347 166.002,155.347 165.724 C 155.347 165.447,155.009 164.914,154.597 164.540 C 154.184 164.167,153.846 163.650,153.846 163.391 C 153.846 163.133,152.903 162.104,151.750 161.104 C 150.598 160.105,148.821 158.485,147.802 157.505 C 146.784 156.524,145.813 155.722,145.646 155.722 C 145.479 155.722,144.258 154.714,142.934 153.481 C 141.609 152.249,140.351 151.236,140.137 151.230 C 139.924 151.224,138.832 150.291,137.711 149.156 C 136.590 148.021,135.516 147.092,135.324 147.092 C 135.132 147.092,134.190 146.358,133.230 145.460 C 132.271 144.563,131.325 143.761,131.128 143.678 C 130.705 143.500,127.262 139.438,126.388 138.086 C 126.055 137.570,125.427 136.775,124.992 136.320 C 124.558 135.864,124.203 135.347,124.203 135.171 C 124.203 134.995,123.907 134.523,123.546 134.123 C 122.627 133.104,120.826 130.669,120.826 130.446 C 120.826 130.343,120.150 129.243,119.325 128.000 C 118.499 126.757,117.824 125.499,117.824 125.205 C 117.824 124.911,117.574 124.463,117.270 124.210 C 116.965 123.957,116.300 122.881,115.790 121.819 C 115.281 120.757,114.475 119.456,113.999 118.929 C 113.017 117.843,112.348 116.853,111.855 115.760 C 111.669 115.347,110.910 114.427,110.168 113.716 C 109.425 113.005,108.818 112.239,108.818 112.014 C 108.818 111.544,105.536 108.296,104.690 107.929 C 104.381 107.794,103.621 107.361,103.002 106.965 C 102.383 106.570,101.412 106.234,100.844 106.219 C 100.277 106.204,99.812 106.023,99.812 105.816 C 99.812 105.610,99.002 105.441,98.011 105.441 C 97.021 105.441,96.050 105.288,95.854 105.102 C 95.525 104.789,88.354 103.863,87.321 104.000 C 87.071 104.033,84.711 104.172,82.076 104.307 M333.959 104.470 C 343.319 106.186,349.024 109.108,356.042 115.780 C 368.718 127.833,372.304 148.673,364.509 164.988 C 356.842 181.036,336.725 199.695,321.246 205.117 C 316.886 206.645,316.636 206.872,315.415 210.434 C 312.788 218.098,310.783 221.750,305.587 228.338 C 289.186 249.136,268.644 260.907,252.189 258.937 C 247.756 258.406,244.331 257.817,243.340 257.415 C 242.927 257.248,241.998 256.903,241.276 256.649 C 238.932 255.823,234.146 253.512,234.146 253.206 C 234.146 253.042,233.971 252.908,233.756 252.908 C 233.312 252.908,231.022 251.365,230.832 250.938 C 230.763 250.783,230.487 250.657,230.218 250.657 C 229.602 250.657,223.597 244.569,222.251 242.578 C 221.696 241.759,221.045 240.888,220.804 240.644 C 219.753 239.578,216.096 231.127,215.639 228.705 C 215.561 228.293,215.399 227.702,215.279 227.392 C 211.491 217.626,217.220 195.754,226.142 185.921 C 226.520 185.505,227.819 184.022,229.030 182.626 C 233.539 177.424,237.884 173.326,245.520 167.073 C 251.346 162.303,258.167 158.542,263.386 157.222 C 265.704 156.636,266.468 155.729,267.774 152.012 C 268.938 148.697,271.355 143.420,272.261 142.214 C 272.494 141.904,273.089 140.891,273.584 139.962 C 274.079 139.034,274.780 138.001,275.141 137.667 C 275.502 137.333,275.797 136.941,275.797 136.795 C 275.797 134.670,293.676 117.427,300.376 113.090 C 301.615 112.288,303.219 111.186,303.941 110.641 C 305.127 109.745,309.939 107.317,310.528 107.317 C 310.660 107.317,311.300 107.084,311.951 106.798 C 317.705 104.273,327.328 103.255,333.959 104.470 M89.681 107.306 C 100.933 108.946,105.737 112.760,114.396 126.930 C 115.249 128.326,115.947 129.557,115.947 129.664 C 115.947 130.058,120.638 137.219,122.299 139.360 C 125.954 144.072,130.706 148.528,136.949 153.096 C 142.346 157.045,147.755 162.268,150.938 166.604 C 152.074 168.152,153.616 170.094,154.366 170.919 C 157.522 174.397,160.143 177.460,161.726 179.522 C 162.655 180.731,164.098 182.583,164.934 183.637 C 168.278 187.857,172.791 194.927,176.935 202.439 C 178.756 205.741,180.858 209.203,181.606 210.131 C 183.670 212.695,187.992 220.554,187.992 221.743 C 187.992 222.534,194.324 230.149,196.433 231.895 C 203.964 238.130,204.878 239.083,204.878 240.700 C 204.878 241.951,206.311 243.527,210.453 246.832 C 212.554 248.509,212.551 249.870,210.446 249.937 C 204.858 250.116,197.757 249.811,196.344 249.332 C 195.440 249.025,193.317 248.421,191.628 247.990 C 187.143 246.847,179.737 241.414,179.737 239.267 C 179.737 239.018,179.400 238.571,178.987 238.274 C 178.574 237.976,178.236 237.557,178.236 237.343 C 178.236 235.879,174.126 233.021,172.021 233.021 C 171.543 233.021,171.062 232.876,170.952 232.699 C 170.843 232.522,169.778 232.260,168.585 232.115 C 165.437 231.735,161.467 231.189,159.099 230.810 C 150.212 229.388,149.719 229.435,149.719 231.697 C 149.719 233.230,149.110 235.200,147.698 238.237 C 147.468 238.732,146.815 239.576,146.248 240.112 C 144.937 241.349,144.952 241.600,146.435 243.174 C 148.162 245.007,149.367 245.543,151.091 245.243 C 155.332 244.508,155.455 244.521,158.335 246.028 C 162.396 248.152,163.025 249.906,159.725 249.906 C 158.610 249.906,157.746 250.165,157.059 250.705 C 155.899 251.618,152.662 251.761,151.675 250.944 C 149.503 249.143,142.090 251.173,138.767 254.478 L 136.871 256.365 134.008 256.100 C 130.580 255.783,130.063 255.453,130.361 253.773 C 131.174 249.195,131.373 249.456,128.272 251.032 C 126.058 252.157,123.001 252.570,122.530 251.809 C 122.086 251.089,118.408 250.934,116.886 251.570 C 115.580 252.116,115.373 252.119,114.857 251.604 C 114.276 251.022,114.293 250.913,115.379 248.311 C 115.972 246.889,106.277 248.745,105.066 250.286 C 104.625 250.846,101.310 251.497,100.847 251.114 C 99.868 250.305,97.664 250.178,96.503 250.864 C 95.076 251.707,94.184 251.367,94.184 249.981 C 94.184 248.085,91.477 246.249,89.835 247.032 C 88.308 247.761,87.430 247.504,87.430 246.330 C 87.430 245.419,89.093 243.152,89.761 243.152 C 89.975 243.152,91.495 242.544,93.140 241.802 C 95.281 240.835,96.467 240.505,97.315 240.640 C 112.258 243.017,114.189 242.736,115.240 238.040 C 115.681 236.070,115.663 235.970,114.589 234.424 C 112.447 231.340,112.037 229.387,111.256 218.574 C 110.935 214.134,110.948 214.159,107.602 211.384 C 105.900 209.973,103.999 208.397,103.379 207.882 C 95.646 201.465,90.220 193.294,88.551 185.553 C 88.373 184.728,87.879 182.617,87.453 180.863 C 86.630 177.475,86.341 176.051,84.257 165.103 C 82.633 156.570,82.404 155.767,80.480 151.822 C 77.869 146.471,76.852 145.626,72.983 145.600 C 69.912 145.579,67.102 144.902,64.554 143.570 C 62.407 142.448,62.135 142.626,61.773 145.394 C 61.173 149.992,59.448 148.980,56.993 142.589 C 56.281 140.735,56.291 130.967,57.008 128.705 C 57.862 126.012,62.176 120.400,63.785 119.889 C 64.137 119.777,64.636 118.971,64.894 118.098 C 65.861 114.824,68.321 111.069,69.498 111.069 C 69.700 111.069,70.318 110.747,70.871 110.353 C 71.730 109.742,77.377 107.732,79.737 107.199 C 80.989 106.915,87.483 106.986,89.681 107.306 M321.576 108.465 C 315.405 108.947,308.036 111.546,302.671 115.133 C 297.233 118.768,296.531 119.295,292.871 122.494 C 282.256 131.771,275.509 139.557,272.208 146.341 C 269.150 152.623,268.462 158.372,270.966 156.711 C 271.991 156.032,275.047 152.554,275.047 152.068 C 275.047 150.838,284.101 139.907,290.231 133.737 C 302.048 121.843,311.463 115.487,321.013 112.955 C 325.470 111.773,335.316 111.197,337.624 111.984 C 338.571 112.306,339.897 112.570,340.570 112.570 C 341.243 112.570,341.893 112.729,342.013 112.924 C 342.266 113.334,345.309 113.853,346.037 113.610 C 346.307 113.519,345.854 113.154,345.028 112.798 C 344.203 112.442,342.683 111.747,341.651 111.254 C 337.891 109.456,335.652 108.880,331.490 108.643 C 329.236 108.514,326.886 108.358,326.266 108.297 C 325.647 108.236,323.537 108.311,321.576 108.465 M346.929 114.407 C 346.705 114.770,347.545 115.197,348.482 115.197 C 348.953 115.197,348.974 115.093,348.593 114.634 C 348.072 114.007,347.246 113.894,346.929 114.407 M351.970 116.840 C 351.970 117.174,352.186 117.448,352.450 117.448 C 352.714 117.448,353.173 117.786,353.471 118.199 C 353.768 118.612,354.236 118.949,354.509 118.949 C 354.987 118.949,354.112 117.928,352.620 116.746 C 352.059 116.301,351.970 116.314,351.970 116.840 M321.894 121.908 C 311.363 124.435,293.712 139.425,286.999 151.542 C 284.673 155.741,284.698 155.830,288.631 157.230 C 301.768 161.906,312.091 172.501,315.740 185.054 C 316.647 188.175,317.806 188.627,320.450 186.892 C 320.966 186.554,321.850 186.045,322.414 185.761 C 322.978 185.478,323.773 184.935,324.181 184.555 C 324.588 184.176,325.027 183.865,325.156 183.865 C 325.414 183.865,327.711 182.059,331.115 179.179 C 335.222 175.704,343.064 167.672,344.308 165.666 C 344.954 164.624,347.035 161.782,347.468 161.351 C 347.661 161.159,348.034 160.381,349.157 157.834 C 351.260 153.064,352.225 145.277,351.210 141.276 C 350.456 138.305,349.930 136.752,349.267 135.542 C 348.896 134.865,348.593 134.063,348.593 133.760 C 348.593 133.456,348.424 133.208,348.218 133.208 C 348.011 133.208,347.842 132.963,347.842 132.663 C 347.842 131.594,341.023 125.161,338.706 124.044 C 333.219 121.398,327.202 120.634,321.894 121.908 M330.647 123.875 C 331.746 124.107,333.177 124.529,333.828 124.813 C 334.478 125.096,335.255 125.328,335.554 125.328 C 335.853 125.328,336.756 125.794,337.561 126.362 C 338.366 126.931,339.529 127.649,340.145 127.957 C 342.755 129.263,347.842 134.842,347.842 136.398 C 347.842 136.708,348.011 136.961,348.218 136.961 C 348.424 136.961,348.593 137.349,348.593 137.824 C 348.593 138.298,348.779 138.873,349.007 139.101 C 349.875 139.969,349.641 150.858,348.714 152.746 C 348.265 153.661,347.795 155.033,347.670 155.795 C 347.543 156.565,346.422 158.733,345.148 160.673 C 343.887 162.594,342.886 164.213,342.923 164.272 C 342.961 164.330,342.183 165.232,341.196 166.275 C 340.208 167.318,339.400 168.368,339.400 168.608 C 339.400 168.847,339.192 169.043,338.938 169.043 C 338.684 169.043,338.184 169.465,337.827 169.981 C 336.992 171.190,336.490 171.700,335.946 171.891 C 335.296 172.120,329.456 177.887,329.456 178.300 C 329.456 178.496,329.287 178.552,329.081 178.424 C 328.874 178.296,328.705 178.352,328.705 178.547 C 328.705 178.742,328.157 179.164,327.486 179.485 C 326.815 179.807,325.507 180.769,324.578 181.624 C 320.778 185.121,318.574 186.159,318.574 184.450 C 318.574 183.946,318.405 183.430,318.199 183.302 C 317.992 183.175,317.824 182.668,317.824 182.176 C 317.824 181.685,317.655 181.178,317.448 181.051 C 317.242 180.923,317.073 180.356,317.073 179.790 C 317.073 179.225,316.939 178.601,316.775 178.405 C 316.610 178.209,316.246 177.373,315.966 176.548 C 315.685 175.723,314.891 174.226,314.201 173.223 C 313.510 172.219,312.946 171.178,312.946 170.908 C 312.946 170.639,312.819 170.363,312.664 170.294 C 312.509 170.225,312.129 169.724,311.820 169.181 C 310.911 167.586,301.770 159.204,300.063 158.401 C 295.706 156.350,294.066 155.722,293.069 155.722 C 292.468 155.722,291.872 155.553,291.745 155.347 C 291.617 155.141,291.101 154.972,290.597 154.972 C 290.093 154.972,289.681 154.812,289.681 154.616 C 289.681 154.024,291.405 150.976,292.258 150.061 C 292.698 149.588,293.058 149.059,293.058 148.884 C 293.058 148.112,306.139 134.956,309.085 132.764 C 310.280 131.876,311.341 131.063,311.445 130.958 C 311.548 130.854,312.097 130.529,312.664 130.236 C 313.232 129.944,313.696 129.564,313.696 129.393 C 313.696 129.221,314.020 129.081,314.415 129.081 C 314.811 129.081,315.191 128.954,315.260 128.799 C 315.438 128.398,317.249 127.368,320.075 126.058 C 321.417 125.437,322.807 124.765,323.166 124.565 C 323.524 124.366,324.316 124.203,324.926 124.203 C 325.536 124.203,326.139 124.034,326.266 123.827 C 326.571 123.335,328.175 123.352,330.647 123.875 M352.232 158.255 C 351.312 159.648,350.210 161.482,349.783 162.330 C 349.356 163.178,347.689 165.609,346.079 167.731 C 344.469 169.853,342.899 171.962,342.589 172.418 C 341.605 173.866,336.510 178.937,333.232 181.730 C 331.491 183.214,329.106 185.272,327.933 186.304 C 324.701 189.145,320.922 192.120,320.543 192.120 C 318.931 192.120,317.649 196.330,319.194 196.550 C 325.382 197.432,346.658 179.332,353.382 167.466 C 357.502 160.195,356.460 151.850,352.232 158.255 M260.945 161.143 C 251.318 164.349,238.048 174.809,227.359 187.618 C 209.442 209.088,213.960 235.383,237.600 247.212 C 250.845 253.840,267.717 251.274,281.238 240.575 C 297.303 227.863,305.297 218.050,312.053 202.749 C 312.668 201.356,313.441 200.237,313.992 199.942 C 314.836 199.490,314.889 199.302,314.664 197.568 C 313.788 190.820,313.213 188.551,311.665 185.733 C 310.931 184.396,309.733 182.120,309.003 180.675 C 304.612 171.985,295.634 163.977,290.282 163.977 C 287.253 163.977,287.948 166.328,291.995 169.766 C 295.937 173.116,299.240 178.617,300.191 183.417 C 300.424 184.592,300.847 186.068,301.132 186.696 C 301.417 187.324,301.837 190.037,302.065 192.723 C 303.130 205.260,299.444 213.707,287.755 225.516 C 276.845 236.539,268.906 242.118,261.327 244.087 C 251.034 246.761,241.545 244.293,234.008 236.980 C 228.139 231.285,226.990 227.696,226.759 214.321 L 226.601 205.190 227.772 201.676 C 231.493 190.506,249.611 171.791,261.914 166.410 C 265.073 165.028,265.156 164.956,265.411 163.382 C 265.925 160.216,265.049 159.777,260.945 161.143 M262.846 175.988 C 252.734 181.307,238.801 195.340,234.162 204.878 C 233.509 206.220,232.831 207.588,232.653 207.920 C 231.824 209.472,230.680 216.679,230.909 218.909 C 232.698 236.283,250.113 246.206,266.417 239.141 C 271.670 236.865,284.259 226.882,288.094 221.951 C 288.736 221.126,289.820 219.817,290.503 219.044 C 293.903 215.192,294.552 214.256,296.685 210.131 C 298.229 207.145,297.681 206.354,293.434 205.436 C 291.650 205.051,284.733 201.623,283.124 200.326 C 280.355 198.096,277.093 195.303,276.997 195.081 C 276.935 194.936,276.418 194.329,275.848 193.733 C 274.138 191.944,271.794 188.686,270.638 186.492 C 270.039 185.356,269.371 184.090,269.153 183.677 C 268.439 182.328,267.956 181.084,267.334 178.987 C 265.924 174.232,266.039 174.309,262.846 175.988 M285.178 175.223 C 285.178 177.194,289.268 182.845,292.520 185.366 C 293.726 186.301,297.975 188.454,298.190 188.239 C 298.527 187.902,297.191 184.812,296.221 183.684 C 295.720 183.100,295.310 182.487,295.310 182.321 C 295.310 181.926,291.142 177.861,290.737 177.861 C 290.565 177.861,289.895 177.355,289.247 176.735 C 288.599 176.116,287.766 175.610,287.396 175.610 C 287.026 175.610,286.619 175.441,286.492 175.235 C 286.194 174.753,285.178 174.745,285.178 175.223 M266.037 179.624 C 266.492 180.593,266.925 181.861,266.999 182.442 C 267.072 183.023,267.671 184.467,268.329 185.651 C 268.988 186.836,269.873 188.442,270.297 189.221 C 270.722 190.000,271.373 190.964,271.744 191.363 C 272.116 191.762,272.420 192.269,272.420 192.489 C 272.420 193.082,280.472 201.187,281.729 201.861 C 282.323 202.179,284.019 203.241,285.498 204.221 C 286.977 205.202,288.603 206.004,289.111 206.004 C 289.618 206.004,290.635 206.341,291.370 206.754 C 292.104 207.167,292.996 207.510,293.351 207.517 C 294.755 207.543,295.325 208.392,294.721 209.558 C 294.418 210.141,294.244 210.692,294.334 210.781 C 294.423 210.871,294.167 211.274,293.764 211.677 C 293.361 212.080,293.148 212.615,293.292 212.865 C 293.436 213.116,293.423 213.204,293.264 213.060 C 292.966 212.792,291.852 214.006,290.661 215.896 C 290.289 216.486,288.736 218.276,287.211 219.872 C 285.686 221.468,284.562 222.912,284.714 223.080 C 284.866 223.248,284.788 223.269,284.541 223.127 C 284.276 222.975,283.746 223.334,283.255 223.998 C 282.796 224.620,281.790 225.545,281.019 226.055 C 280.249 226.565,279.204 227.369,278.697 227.844 C 276.553 229.846,269.385 235.360,268.144 235.961 C 265.786 237.103,262.183 238.274,261.028 238.274 C 260.301 238.274,259.602 238.443,259.475 238.649 C 259.347 238.856,258.165 239.024,256.848 239.024 C 255.531 239.024,254.349 238.856,254.221 238.649 C 254.094 238.443,253.416 238.274,252.716 238.274 C 252.016 238.274,251.055 238.127,250.581 237.947 C 250.106 237.767,249.043 237.411,248.218 237.157 C 244.238 235.931,237.899 231.295,237.899 229.611 C 237.899 229.383,237.587 228.748,237.206 228.201 C 234.431 224.214,233.653 213.510,235.780 208.599 C 236.085 207.894,236.599 206.707,236.922 205.962 C 237.245 205.216,237.766 204.393,238.079 204.133 C 238.393 203.873,238.649 203.428,238.649 203.144 C 238.649 202.859,238.818 202.627,239.024 202.627 C 239.231 202.627,239.400 202.404,239.400 202.131 C 239.400 201.859,239.991 200.946,240.713 200.102 C 241.435 199.258,242.026 198.460,242.026 198.330 C 242.026 197.343,257.061 182.601,258.657 182.023 C 258.889 181.939,259.590 181.390,260.215 180.803 C 260.840 180.216,261.609 179.652,261.924 179.550 C 262.239 179.448,262.740 179.026,263.038 178.613 C 263.996 177.284,265.114 177.661,266.037 179.624 M291.104 180.127 C 291.367 180.548,291.771 180.775,292.003 180.632 C 292.259 180.474,292.319 180.541,292.156 180.805 C 292.009 181.043,292.025 181.240,292.192 181.241 C 292.359 181.243,292.690 181.665,292.929 182.179 C 293.168 182.694,293.336 183.114,293.304 183.112 C 292.930 183.099,289.764 179.362,290.128 179.362 C 290.402 179.362,290.841 179.706,291.104 180.127 M129.331 226.892 C 129.193 227.029,129.081 227.422,129.081 227.763 C 129.081 230.317,124.421 237.583,122.344 238.268 C 120.827 238.769,120.792 238.819,120.901 240.310 C 121.025 242.002,122.563 242.541,124.920 241.719 C 126.375 241.212,128.274 242.080,128.809 243.498 C 129.435 245.157,130.620 245.649,132.669 245.101 C 133.591 244.855,134.722 244.648,135.184 244.641 C 136.187 244.627,137.055 244.012,137.650 242.895 C 138.396 241.494,138.145 240.707,136.345 238.803 C 134.588 236.943,133.113 234.154,130.759 228.236 C 130.138 226.675,129.834 226.389,129.331 226.892 M131.882 234.563 C 131.772 234.909,131.933 235.444,132.240 235.751 C 132.546 236.057,132.709 236.397,132.600 236.505 C 132.339 236.767,134.028 239.400,135.036 240.302 C 136.515 241.625,136.144 242.062,133.106 242.575 C 131.853 242.787,131.582 242.686,130.752 241.699 C 130.236 241.086,129.042 240.210,128.099 239.754 C 127.156 239.297,126.529 238.820,126.704 238.693 C 127.309 238.255,129.081 235.287,129.081 234.712 C 129.081 233.241,129.907 232.648,131.032 233.312 C 131.730 233.725,132.015 234.144,131.882 234.563 " stroke="none" fill="#d1dae0" fill-rule="evenodd"></path><path id="path1" d="M326.079 113.366 C 321.118 114.187,319.985 114.475,316.726 115.749 C 307.329 119.421,291.387 132.646,283.474 143.336 C 280.894 146.820,275.047 157.387,275.047 158.564 C 275.047 159.309,273.632 160.303,272.902 160.071 C 272.194 159.847,270.147 161.905,269.070 163.924 C 268.425 165.134,267.948 164.534,267.666 162.155 C 267.331 159.327,266.932 159.479,266.676 162.532 C 266.443 165.311,265.875 166.380,264.397 166.824 C 263.203 167.183,257.059 170.712,255.348 172.022 C 248.648 177.152,238.414 186.668,236.421 189.621 C 236.098 190.098,235.221 191.236,234.471 192.149 C 233.191 193.706,230.439 198.779,229.855 200.657 C 229.386 202.167,230.377 201.578,231.591 199.625 C 232.233 198.593,232.897 197.749,233.067 197.749 C 233.237 197.749,233.659 197.200,234.005 196.529 C 235.561 193.509,243.929 184.467,248.780 180.565 C 250.328 179.319,251.996 177.932,252.487 177.482 C 253.677 176.392,257.013 174.279,258.068 173.948 C 258.532 173.802,258.912 173.546,258.912 173.379 C 258.912 172.957,261.020 172.122,261.598 172.315 C 261.858 172.402,261.025 173.184,259.746 174.052 C 258.466 174.921,256.700 176.311,255.821 177.142 C 254.941 177.972,253.532 179.138,252.689 179.732 C 251.846 180.327,250.571 181.373,249.855 182.058 C 249.139 182.742,247.211 184.582,245.571 186.146 C 242.727 188.859,237.389 194.436,236.579 195.540 C 236.369 195.826,235.548 197.073,234.755 198.311 C 233.961 199.550,233.022 200.985,232.668 201.501 C 231.771 202.808,231.134 204.790,231.394 205.467 C 231.676 206.202,232.419 205.952,232.591 205.064 C 232.746 204.266,236.364 198.721,238.922 195.363 C 240.797 192.901,249.701 183.754,251.182 182.768 C 251.969 182.244,255.851 179.338,256.848 178.527 C 259.462 176.399,265.260 173.498,266.188 173.853 C 266.488 173.969,267.242 175.665,267.863 177.623 C 271.961 190.540,282.896 201.812,294.109 204.679 C 295.410 205.012,297.072 205.569,297.804 205.918 C 299.435 206.696,299.913 206.242,300.541 203.317 C 301.588 198.432,301.069 196.998,298.253 196.998 C 295.171 196.998,293.872 196.223,289.669 191.878 C 284.411 186.441,283.603 185.107,280.842 177.298 C 279.789 174.320,280.364 164.342,281.711 162.219 C 281.997 161.768,282.765 161.281,283.418 161.138 C 285.691 160.639,287.587 158.349,285.728 158.349 C 284.294 158.349,283.276 157.182,283.529 155.830 C 283.954 153.566,288.215 146.089,290.702 143.245 C 291.379 142.470,291.932 141.679,291.932 141.488 C 291.932 141.296,292.262 141.034,292.664 140.907 C 293.066 140.779,293.500 140.343,293.629 139.939 C 293.974 138.851,300.528 132.389,302.159 131.528 C 302.932 131.120,303.565 130.665,303.565 130.517 C 303.565 130.143,308.937 126.054,310.627 125.141 C 311.392 124.728,312.567 123.996,313.240 123.515 C 313.912 123.033,315.683 122.310,317.175 121.907 C 318.667 121.503,320.790 120.906,321.892 120.578 C 324.962 119.667,331.438 120.068,334.896 121.383 C 345.408 125.381,351.158 132.920,352.503 144.470 C 353.132 149.870,353.583 150.874,354.479 148.874 C 354.919 147.894,354.677 141.448,354.181 140.919 C 353.549 140.246,353.763 138.301,354.409 138.837 C 354.729 139.103,354.972 139.921,354.972 140.737 C 354.972 141.525,355.141 142.274,355.347 142.402 C 355.562 142.534,355.722 144.475,355.722 146.944 C 355.722 151.665,356.184 152.726,358.491 153.305 C 360.272 153.752,360.236 154.350,357.984 161.538 C 355.772 168.600,348.411 177.954,337.688 187.329 C 334.710 189.932,325.544 196.248,324.744 196.248 C 324.487 196.248,323.374 196.668,322.270 197.182 C 321.147 197.705,319.571 198.118,318.693 198.120 C 316.867 198.124,316.859 198.141,316.490 202.345 C 316.317 204.318,316.364 205.253,316.636 205.253 C 318.144 205.253,325.119 202.812,327.264 201.533 C 327.813 201.206,329.249 200.368,330.454 199.671 C 332.877 198.270,335.796 196.221,337.523 194.706 C 338.143 194.164,339.901 192.642,341.432 191.325 C 342.962 190.008,344.989 188.259,345.935 187.439 C 347.677 185.929,354.032 179.169,355.248 177.533 C 355.612 177.044,356.422 176.030,357.047 175.282 C 358.172 173.935,358.970 172.757,361.320 168.969 C 368.111 158.022,368.387 146.023,362.146 133.049 C 355.690 119.628,339.995 111.063,326.079 113.366 M78.957 115.140 C 75.929 116.551,74.738 119.443,76.207 121.819 C 78.995 126.331,84.924 125.126,86.092 119.811 C 86.847 116.372,82.467 113.504,78.957 115.140 M66.145 118.476 C 65.778 119.043,64.190 120.783,62.616 122.343 C 58.547 126.375,57.032 129.831,57.038 135.069 C 57.047 142.525,59.999 149.615,60.968 144.506 C 61.504 141.679,62.102 141.405,64.810 142.742 C 67.711 144.175,70.510 144.811,73.983 144.827 L 76.859 144.841 78.375 146.563 C 79.209 147.510,80.642 149.832,81.560 151.722 C 83.420 155.552,84.078 158.236,86.864 173.358 C 90.482 192.996,94.056 199.421,107.124 209.788 C 111.618 213.352,111.608 213.334,112.175 219.325 C 113.034 228.404,113.695 231.479,115.270 233.712 C 117.446 236.797,116.342 241.235,113.051 242.637 C 111.469 243.312,106.455 243.279,102.627 242.569 C 96.405 241.415,96.524 241.408,92.962 243.108 C 89.581 244.722,88.717 245.403,90.053 245.403 C 91.269 245.403,92.791 246.330,94.276 247.974 C 95.511 249.341,95.750 249.451,97.095 249.270 C 98.053 249.142,98.971 249.283,99.733 249.677 C 101.437 250.559,103.000 250.422,105.388 249.185 C 111.394 246.072,120.626 245.795,116.935 248.838 C 115.309 250.177,115.644 250.795,117.660 250.176 C 118.674 249.865,119.394 249.946,121.380 250.599 C 124.645 251.670,125.098 251.635,128.288 250.064 C 131.067 248.695,134.149 248.089,135.989 248.551 C 137.485 248.926,137.160 249.403,134.808 250.283 C 129.813 252.151,130.321 255.136,135.637 255.155 C 136.457 255.158,137.103 254.775,138.076 253.708 C 140.584 250.958,147.631 248.852,150.941 249.864 C 154.240 250.873,155.203 250.827,157.162 249.570 C 158.160 248.930,159.184 248.405,159.436 248.405 C 161.034 248.405,156.320 245.756,154.670 245.727 C 154.114 245.718,152.617 245.832,151.344 245.981 C 146.728 246.522,142.870 242.357,145.429 239.595 C 146.811 238.104,148.186 234.764,148.589 231.922 C 148.982 229.148,149.620 228.412,151.389 228.695 C 159.662 230.019,162.540 230.462,166.041 230.951 C 174.925 232.191,176.077 232.746,179.295 237.336 C 183.773 243.725,186.463 245.703,192.343 246.931 C 194.345 247.349,196.569 247.936,197.286 248.235 C 198.713 248.832,201.501 248.976,201.501 248.453 C 201.501 248.016,198.243 245.028,197.766 245.028 C 196.590 245.028,193.070 240.893,193.567 240.097 C 194.023 239.367,194.005 239.318,193.377 239.581 C 190.975 240.586,187.905 239.394,184.737 236.226 C 182.147 233.636,182.391 233.153,185.657 234.401 C 190.708 236.332,194.268 235.556,193.149 232.768 C 191.740 229.252,190.489 226.870,189.378 225.587 C 187.693 223.639,186.644 222.084,186.313 221.043 C 186.157 220.551,185.542 219.322,184.947 218.313 C 184.352 217.303,183.865 216.272,183.865 216.022 C 183.865 215.111,179.270 209.384,177.989 208.699 C 177.040 208.191,174.942 209.890,175.576 210.653 C 176.077 211.257,175.949 211.704,174.975 212.754 C 174.499 213.268,174.109 213.881,174.109 214.115 C 174.109 215.330,173.052 215.405,171.215 214.322 C 170.199 213.723,168.788 212.957,168.080 212.619 C 167.371 212.281,166.520 211.527,166.189 210.943 C 165.816 210.288,164.632 209.402,163.093 208.629 C 161.722 207.940,160.600 207.237,160.600 207.065 C 160.600 206.894,160.336 206.754,160.012 206.754 C 159.181 206.754,159.678 208.159,160.984 209.501 C 161.591 210.125,162.112 211.172,162.252 212.050 C 162.383 212.870,162.683 213.849,162.918 214.226 C 164.289 216.420,162.370 216.378,160.061 214.163 C 159.222 213.359,157.678 212.143,156.629 211.461 C 155.580 210.778,154.398 209.820,154.002 209.330 C 152.749 207.778,148.546 205.372,146.954 205.294 C 145.533 205.225,144.288 204.678,141.276 202.797 C 140.450 202.282,139.564 201.761,139.306 201.640 C 139.048 201.520,138.827 201.228,138.816 200.992 C 138.783 200.307,136.861 198.972,134.669 198.110 C 133.556 197.672,132.097 196.897,131.426 196.387 C 130.755 195.876,130.206 195.567,130.206 195.699 C 130.206 195.831,129.687 195.502,129.052 194.968 C 128.417 194.433,127.642 193.996,127.331 193.996 C 127.019 193.996,125.857 193.110,124.748 192.026 C 123.639 190.943,121.949 189.381,120.993 188.555 C 118.575 186.467,117.448 185.260,117.448 184.757 C 117.448 184.151,114.562 181.614,113.873 181.614 C 113.559 181.614,113.154 181.234,112.972 180.769 C 112.507 179.577,111.154 178.236,110.418 178.236 C 109.204 178.236,104.791 174.908,103.824 173.265 C 101.763 169.762,100.192 169.205,100.182 171.973 C 100.173 174.498,99.685 174.792,98.612 172.919 C 97.170 170.403,96.185 168.088,95.715 166.108 C 95.478 165.113,94.858 163.424,94.336 162.355 C 93.646 160.944,93.341 159.604,93.219 157.458 C 93.096 155.305,92.797 153.999,92.116 152.643 C 91.602 151.620,91.182 150.354,91.182 149.829 C 91.182 147.030,87.823 143.343,84.240 142.210 C 79.123 140.591,74.014 136.590,73.302 133.644 C 73.170 133.095,72.773 132.223,72.421 131.707 C 70.643 129.101,69.596 122.831,70.729 121.579 C 71.625 120.589,70.948 119.542,68.664 118.385 L 66.811 117.445 66.145 118.476 M111.635 128.274 C 111.721 128.821,111.891 130.204,112.011 131.347 C 112.196 133.103,112.350 133.435,113.007 133.485 C 113.435 133.517,114.029 133.891,114.326 134.316 C 114.802 134.995,116.672 136.210,117.242 136.210 C 117.916 136.210,117.253 134.454,116.136 133.277 C 115.414 132.517,114.727 131.557,114.610 131.144 C 114.037 129.131,113.521 128.298,112.544 127.811 C 111.497 127.288,111.481 127.297,111.635 128.274 M282.136 165.760 C 281.392 167.697,282.158 174.832,283.395 177.486 C 283.828 178.415,284.364 179.596,284.587 180.110 C 285.185 181.497,291.517 187.682,294.210 189.511 C 295.498 190.386,297.194 191.682,297.980 192.392 C 299.546 193.807,300.188 193.746,300.188 192.181 C 300.188 190.911,299.231 189.493,298.374 189.493 C 297.328 189.493,291.990 186.606,290.758 185.375 C 290.134 184.751,289.468 184.240,289.279 184.240 C 288.920 184.240,285.500 179.052,284.298 176.685 C 282.940 174.010,284.195 173.039,287.119 174.500 C 289.496 175.688,293.767 178.614,294.361 179.461 C 294.643 179.864,295.054 180.083,295.273 179.948 C 295.693 179.688,293.747 175.778,292.812 175.006 C 292.535 174.776,292.308 174.462,292.308 174.307 C 292.308 173.424,283.923 164.728,283.072 164.728 C 282.776 164.728,282.354 165.192,282.136 165.760 M277.446 190.240 C 282.680 195.184,282.629 195.126,281.707 195.118 C 281.287 195.114,279.374 193.402,277.017 190.919 C 275.647 189.476,276.018 188.890,277.446 190.240 M312.669 211.257 C 312.359 211.940,312.236 212.016,312.219 211.538 C 312.156 209.792,309.869 211.384,308.042 214.447 C 302.522 223.704,285.815 240.070,275.797 246.035 C 254.962 258.440,228.692 251.142,218.368 230.080 C 217.656 228.628,216.967 227.429,216.838 227.416 C 216.540 227.386,217.501 232.031,217.976 232.921 C 218.171 233.285,219.113 235.171,220.070 237.111 C 229.857 256.970,257.031 264.312,276.868 252.457 C 278.179 251.673,279.311 251.032,279.384 251.032 C 280.459 251.032,290.667 242.572,296.623 236.745 C 306.193 227.381,313.729 215.934,313.230 211.517 L 313.095 210.319 312.669 211.257 M130.764 225.132 C 130.889 225.334,131.389 226.558,131.876 227.853 C 134.108 233.783,135.386 236.231,137.218 238.086 C 139.486 240.383,139.725 240.970,139.052 242.581 C 137.512 246.268,127.955 247.514,127.955 244.028 C 127.955 243.080,126.145 242.251,125.108 242.724 C 120.454 244.844,117.196 239.750,121.797 237.547 C 123.816 236.580,127.427 230.803,128.143 227.392 C 128.639 225.032,129.985 223.871,130.764 225.132 " stroke="none" fill="#4e5141" fill-rule="evenodd"></path><path id="path2" d="M79.737 107.199 C 77.700 107.659,71.812 109.679,71.482 110.030 C 71.220 110.309,71.334 110.346,71.857 110.154 C 75.921 108.662,79.045 109.128,78.350 111.121 C 77.603 113.263,78.122 113.912,80.569 113.897 C 83.119 113.881,85.287 114.789,88.342 117.153 C 90.600 118.900,90.611 119.026,88.597 120.054 C 87.822 120.449,86.539 121.565,85.746 122.533 C 83.998 124.665,82.256 125.482,80.131 125.163 C 78.679 124.945,78.016 124.616,75.655 122.939 C 74.505 122.122,72.702 122.600,72.002 123.907 C 71.280 125.257,72.751 129.831,73.908 129.831 C 74.114 129.831,75.704 130.507,77.441 131.332 C 80.584 132.825,80.624 132.833,85.119 132.833 C 90.019 132.833,90.384 132.987,89.509 134.680 C 88.799 136.052,88.743 138.684,89.418 138.943 C 90.282 139.275,94.257 138.950,94.519 138.526 C 94.659 138.300,95.358 137.844,96.073 137.512 C 98.814 136.240,99.436 135.750,101.284 133.397 C 102.332 132.064,103.189 130.823,103.189 130.640 C 103.189 130.457,103.539 129.864,103.966 129.321 C 106.684 125.865,106.215 120.348,102.794 115.544 C 99.564 111.008,105.710 115.363,109.627 120.386 C 111.791 123.161,112.485 123.954,111.983 123.077 C 107.568 115.376,100.307 109.312,93.996 108.055 C 88.991 107.058,82.170 106.648,79.737 107.199 M67.897 112.477 L 66.604 113.884 68.011 112.591 C 68.785 111.879,69.418 111.246,69.418 111.183 C 69.418 110.897,69.101 111.167,67.897 112.477 M113.496 126.055 C 113.810 126.661,114.236 127.262,114.445 127.391 C 114.653 127.520,114.468 127.024,114.035 126.289 C 113.085 124.678,112.697 124.510,113.496 126.055 M118.617 134.615 C 120.031 136.941,121.881 139.739,122.406 140.343 C 122.677 140.655,123.260 141.415,123.701 142.031 C 124.142 142.648,125.770 144.477,127.320 146.096 C 129.846 148.735,131.003 150.469,130.237 150.469 C 130.086 150.469,129.585 150.068,129.125 149.578 C 127.298 147.634,108.558 146.088,105.816 147.655 C 105.300 147.950,104.343 148.197,103.690 148.204 C 102.772 148.215,102.252 148.537,101.399 149.625 C 99.041 152.633,98.863 154.285,100.520 157.764 C 101.116 159.014,101.889 160.727,102.238 161.569 C 102.586 162.411,103.365 163.678,103.968 164.383 C 104.571 165.089,105.064 165.773,105.065 165.904 C 105.067 166.551,107.179 167.385,109.251 167.559 C 110.527 167.666,112.176 168.073,112.915 168.463 C 117.915 171.105,123.110 173.360,124.229 173.374 C 126.254 173.399,129.383 174.246,129.912 174.912 C 130.177 175.246,131.068 175.620,131.892 175.743 C 132.716 175.866,133.448 176.140,133.518 176.351 C 133.588 176.563,133.970 176.735,134.365 176.735 C 134.834 176.735,135.084 176.996,135.084 177.486 C 135.084 178.092,135.335 178.236,136.386 178.236 C 137.389 178.236,137.638 178.107,137.472 177.674 C 137.285 177.188,138.060 177.111,143.112 177.111 C 148.067 177.111,148.968 177.197,148.968 177.674 C 148.968 177.983,149.137 178.236,149.343 178.236 C 149.550 178.236,149.719 178.055,149.719 177.833 C 149.719 177.592,150.369 177.469,151.329 177.528 C 152.214 177.583,153.132 177.507,153.369 177.361 C 153.606 177.215,153.937 177.330,154.105 177.617 C 154.288 177.931,155.291 178.210,156.628 178.317 C 158.633 178.479,158.976 178.638,160.168 179.961 C 160.895 180.767,162.544 182.572,163.834 183.972 C 165.124 185.373,167.324 188.243,168.722 190.351 C 170.120 192.459,171.716 194.775,172.269 195.497 C 172.823 196.220,173.736 197.655,174.298 198.687 C 174.861 199.719,175.614 200.985,175.972 201.501 C 176.329 202.017,177.280 203.705,178.085 205.253 C 179.319 207.628,181.790 211.147,183.222 212.570 C 183.954 213.298,182.991 211.839,181.611 210.131 C 180.860 209.203,178.756 205.741,176.935 202.439 C 172.791 194.927,168.278 187.857,164.934 183.637 C 164.098 182.583,162.655 180.731,161.726 179.522 C 160.143 177.460,157.522 174.397,154.366 170.919 C 153.616 170.094,152.074 168.152,150.938 166.604 C 147.755 162.268,142.346 157.045,136.949 153.096 C 129.011 147.288,123.076 141.239,119.312 135.122 C 118.664 134.070,118.051 133.208,117.948 133.208 C 117.846 133.208,118.147 133.841,118.617 134.615 M184.040 214.165 C 184.367 214.836,184.715 215.385,184.813 215.385 C 185.186 215.385,184.945 214.787,184.209 213.884 L 183.445 212.946 184.040 214.165 M191.397 226.810 C 191.722 227.233,192.553 228.508,193.245 229.644 C 194.685 232.007,196.202 233.771,196.794 233.771 C 197.017 233.771,198.517 235.038,200.126 236.585 C 201.735 238.133,203.209 239.400,203.402 239.400 C 203.595 239.400,203.752 240.041,203.752 240.825 C 203.752 242.507,205.978 244.862,210.668 248.141 C 211.976 249.056,211.880 249.531,210.387 249.531 C 208.858 249.531,205.253 248.495,205.253 248.056 C 205.253 247.171,204.076 247.367,203.717 248.311 C 203.504 248.870,203.149 249.440,202.927 249.577 C 202.578 249.793,207.961 250.059,210.446 249.948 C 212.551 249.854,212.554 248.509,210.453 246.832 C 206.223 243.457,204.878 241.961,204.878 240.630 C 204.878 239.162,204.618 238.871,199.250 234.334 C 197.296 232.683,195.104 230.671,194.378 229.862 C 192.334 227.586,190.743 225.957,191.397 226.810 M195.150 236.533 C 194.480 237.785,194.895 238.274,196.627 238.274 L 198.088 238.274 197.577 237.054 C 196.939 235.529,195.817 235.288,195.150 236.533 " stroke="none" fill="#c5d564" fill-rule="evenodd"></path><path id="path3" d="M321.201 104.359 C 316.853 105.054,314.530 105.667,311.951 106.798 C 311.300 107.084,310.660 107.317,310.528 107.317 C 309.939 107.317,305.127 109.745,303.941 110.641 C 303.219 111.186,301.615 112.288,300.376 113.090 C 293.676 117.427,275.797 134.670,275.797 136.795 C 275.797 136.941,275.502 137.333,275.141 137.667 C 274.780 138.001,274.079 139.034,273.584 139.962 C 273.089 140.891,272.494 141.904,272.261 142.214 C 271.355 143.420,268.938 148.697,267.774 152.012 C 266.468 155.729,265.704 156.636,263.386 157.222 C 258.167 158.542,251.346 162.303,245.520 167.073 C 237.884 173.326,233.539 177.424,229.030 182.626 C 227.819 184.022,226.520 185.505,226.142 185.921 C 223.296 189.058,218.167 198.411,216.471 203.557 C 214.232 210.349,213.597 223.055,215.279 227.392 C 215.399 227.702,215.561 228.293,215.639 228.705 C 216.096 231.127,219.753 239.578,220.804 240.644 C 221.045 240.888,221.696 241.759,222.251 242.578 C 223.597 244.569,229.602 250.657,230.218 250.657 C 230.487 250.657,230.763 250.783,230.832 250.938 C 231.022 251.365,233.312 252.908,233.756 252.908 C 233.971 252.908,234.146 253.042,234.146 253.206 C 234.146 253.512,238.932 255.823,241.276 256.649 C 241.998 256.903,242.927 257.248,243.340 257.415 C 250.112 260.159,262.689 259.415,272.233 255.705 C 286.373 250.209,307.442 229.878,313.238 216.135 C 313.891 214.587,314.871 212.022,315.415 210.434 C 316.636 206.872,316.886 206.645,321.246 205.117 C 338.833 198.957,361.364 176.450,366.562 159.850 C 370.006 148.853,369.079 136.931,363.989 126.761 C 355.918 110.638,338.611 101.576,321.201 104.359 M331.490 108.643 C 335.652 108.880,337.891 109.456,341.651 111.254 C 342.683 111.747,344.203 112.442,345.028 112.798 C 345.854 113.154,346.307 113.519,346.037 113.610 C 345.309 113.853,342.266 113.334,342.013 112.924 C 341.893 112.729,341.243 112.570,340.570 112.570 C 339.897 112.570,338.571 112.306,337.624 111.984 C 335.316 111.197,325.470 111.773,321.013 112.955 C 311.463 115.487,302.048 121.843,290.231 133.737 C 284.101 139.907,275.047 150.838,275.047 152.068 C 275.047 153.365,270.277 157.622,269.752 156.794 C 266.245 151.260,283.108 128.403,298.336 118.050 C 306.148 112.739,308.295 111.634,314.259 109.860 C 317.825 108.799,323.661 108.039,326.266 108.297 C 326.886 108.358,329.236 108.514,331.490 108.643 M338.218 113.956 C 359.763 118.902,372.483 143.682,363.858 163.903 C 362.253 167.666,359.329 172.551,357.047 175.282 C 356.422 176.030,355.612 177.044,355.248 177.533 C 354.032 179.169,347.677 185.929,345.935 187.439 C 344.989 188.259,342.962 190.008,341.432 191.325 C 339.901 192.642,338.143 194.164,337.523 194.706 C 335.796 196.221,332.877 198.270,330.454 199.671 C 329.249 200.368,327.813 201.206,327.264 201.533 C 325.119 202.812,318.144 205.253,316.636 205.253 C 316.364 205.253,316.317 204.318,316.490 202.345 C 316.859 198.141,316.867 198.124,318.693 198.120 C 319.571 198.118,321.147 197.705,322.270 197.182 C 323.374 196.668,324.487 196.248,324.744 196.248 C 325.544 196.248,334.710 189.932,337.688 187.329 C 348.411 177.954,355.772 168.600,357.984 161.538 C 360.236 154.350,360.272 153.752,358.491 153.305 C 356.184 152.726,355.722 151.665,355.722 146.944 C 355.722 144.475,355.562 142.534,355.347 142.402 C 355.141 142.274,354.972 141.525,354.972 140.737 C 354.972 139.921,354.729 139.103,354.409 138.837 C 353.763 138.301,353.549 140.246,354.181 140.919 C 354.677 141.448,354.919 147.894,354.479 148.874 C 353.583 150.874,353.132 149.870,352.503 144.470 C 351.158 132.920,345.408 125.381,334.896 121.383 C 331.438 120.068,324.962 119.667,321.892 120.578 C 320.790 120.906,318.667 121.503,317.175 121.907 C 315.683 122.310,313.912 123.033,313.240 123.515 C 312.567 123.996,311.392 124.728,310.627 125.141 C 308.937 126.054,303.565 130.143,303.565 130.517 C 303.565 130.665,302.932 131.120,302.159 131.528 C 300.528 132.389,293.974 138.851,293.629 139.939 C 293.500 140.343,293.066 140.779,292.664 140.907 C 292.262 141.034,291.932 141.296,291.932 141.488 C 291.932 141.679,291.379 142.470,290.702 143.245 C 288.215 146.089,283.954 153.566,283.529 155.830 C 283.276 157.182,284.294 158.349,285.728 158.349 C 287.587 158.349,285.691 160.639,283.418 161.138 C 282.765 161.281,281.997 161.768,281.711 162.219 C 280.364 164.342,279.789 174.320,280.842 177.298 C 283.603 185.107,284.411 186.441,289.669 191.878 C 293.872 196.223,295.171 196.998,298.253 196.998 C 301.069 196.998,301.588 198.432,300.541 203.317 C 299.913 206.242,299.435 206.696,297.804 205.918 C 297.072 205.569,295.410 205.012,294.109 204.679 C 282.896 201.812,271.961 190.540,267.863 177.623 C 267.242 175.665,266.488 173.969,266.188 173.853 C 265.260 173.498,259.462 176.399,256.848 178.527 C 255.851 179.338,251.969 182.244,251.182 182.768 C 249.701 183.754,240.797 192.901,238.922 195.363 C 236.364 198.721,232.746 204.266,232.591 205.064 C 232.419 205.952,231.676 206.202,231.394 205.467 C 231.134 204.790,231.771 202.808,232.668 201.501 C 233.022 200.985,233.961 199.550,234.755 198.311 C 235.548 197.073,236.369 195.826,236.579 195.540 C 237.389 194.436,242.727 188.859,245.571 186.146 C 247.211 184.582,249.139 182.742,249.855 182.058 C 250.571 181.373,251.846 180.327,252.689 179.732 C 253.532 179.138,254.941 177.972,255.821 177.142 C 256.700 176.311,258.466 174.921,259.746 174.052 C 261.025 173.184,261.858 172.402,261.598 172.315 C 261.020 172.122,258.912 172.957,258.912 173.379 C 258.912 173.546,258.532 173.802,258.068 173.948 C 257.013 174.279,253.677 176.392,252.487 177.482 C 251.996 177.932,250.328 179.319,248.780 180.565 C 243.929 184.467,235.561 193.509,234.005 196.529 C 233.659 197.200,233.237 197.749,233.067 197.749 C 232.897 197.749,232.233 198.593,231.591 199.625 C 230.377 201.578,229.386 202.167,229.855 200.657 C 230.439 198.779,233.191 193.706,234.471 192.149 C 235.221 191.236,236.098 190.098,236.421 189.621 C 238.414 186.668,248.648 177.152,255.348 172.022 C 257.059 170.712,263.203 167.183,264.397 166.824 C 265.875 166.380,266.443 165.311,266.676 162.532 C 266.932 159.479,267.331 159.327,267.666 162.155 C 267.948 164.534,268.425 165.134,269.070 163.924 C 270.147 161.905,272.194 159.847,272.902 160.071 C 273.632 160.303,275.047 159.309,275.047 158.564 C 275.047 155.054,284.416 141.335,291.693 134.191 C 308.007 118.173,318.688 112.594,331.895 113.195 C 333.959 113.289,336.804 113.631,338.218 113.956 M348.593 114.634 C 348.974 115.093,348.953 115.197,348.482 115.197 C 347.545 115.197,346.705 114.770,346.929 114.407 C 347.246 113.894,348.072 114.007,348.593 114.634 M64.960 117.999 C 64.676 118.960,64.185 119.762,63.806 119.882 C 62.178 120.399,57.868 125.993,57.008 128.705 C 56.291 130.967,56.281 140.735,56.993 142.589 C 59.448 148.980,61.173 149.992,61.773 145.394 C 62.135 142.626,62.407 142.448,64.554 143.570 C 67.102 144.902,69.912 145.579,72.983 145.600 C 76.852 145.626,77.869 146.471,80.480 151.822 C 82.404 155.767,82.633 156.570,84.257 165.103 C 86.341 176.051,86.630 177.475,87.453 180.863 C 87.879 182.617,88.373 184.728,88.551 185.553 C 90.220 193.294,95.646 201.465,103.379 207.882 C 103.999 208.397,105.900 209.973,107.602 211.384 C 110.948 214.159,110.935 214.134,111.256 218.574 C 112.037 229.387,112.447 231.340,114.589 234.424 C 115.663 235.970,115.681 236.070,115.240 238.040 C 114.189 242.736,112.258 243.017,97.315 240.640 C 96.467 240.505,95.281 240.835,93.140 241.802 C 91.495 242.544,89.975 243.152,89.761 243.152 C 89.093 243.152,87.430 245.419,87.430 246.330 C 87.430 247.504,88.308 247.761,89.835 247.032 C 91.477 246.249,94.184 248.085,94.184 249.981 C 94.184 251.367,95.076 251.707,96.503 250.864 C 97.664 250.178,99.868 250.305,100.847 251.114 C 101.310 251.497,104.625 250.846,105.066 250.286 C 106.277 248.745,115.972 246.889,115.379 248.311 C 114.293 250.913,114.276 251.022,114.857 251.604 C 115.373 252.119,115.580 252.116,116.886 251.570 C 118.408 250.934,122.086 251.089,122.530 251.809 C 123.001 252.570,126.058 252.157,128.272 251.032 C 131.044 249.623,131.088 249.626,130.810 251.220 C 130.685 251.942,130.483 253.091,130.361 253.773 C 130.063 255.453,130.580 255.783,134.008 256.100 L 136.871 256.365 138.767 254.478 C 140.554 252.701,141.476 252.132,144.346 251.041 C 146.005 250.410,150.952 250.344,151.675 250.944 C 152.662 251.761,155.899 251.618,157.059 250.705 C 157.746 250.165,158.610 249.906,159.725 249.906 C 163.025 249.906,162.396 248.152,158.335 246.028 C 155.455 244.521,155.332 244.508,151.091 245.243 C 149.367 245.543,148.162 245.007,146.435 243.174 C 144.952 241.600,144.937 241.349,146.248 240.112 C 146.815 239.576,147.491 238.690,147.749 238.143 C 149.069 235.343,149.719 233.217,149.719 231.697 C 149.719 229.435,150.212 229.388,159.099 230.810 C 161.467 231.189,165.437 231.735,168.585 232.115 C 169.778 232.260,170.843 232.522,170.952 232.699 C 171.062 232.876,171.543 233.021,172.021 233.021 C 174.126 233.021,178.236 235.879,178.236 237.343 C 178.236 237.557,178.574 237.976,178.987 238.274 C 179.400 238.571,179.737 239.018,179.737 239.267 C 179.737 241.308,187.171 246.883,191.182 247.850 C 192.627 248.198,194.807 248.803,196.028 249.194 C 198.835 250.094,202.337 250.142,203.187 249.292 C 203.921 248.558,203.592 248.147,201.876 247.655 C 200.904 247.376,200.716 247.395,201.057 247.736 C 202.209 248.888,199.656 249.226,197.286 248.235 C 196.569 247.936,194.345 247.349,192.343 246.931 C 186.463 245.703,183.773 243.725,179.295 237.336 C 176.077 232.746,174.925 232.191,166.041 230.951 C 162.540 230.462,159.662 230.019,151.389 228.695 C 149.620 228.412,148.982 229.148,148.589 231.922 C 148.186 234.764,146.811 238.104,145.429 239.595 C 142.870 242.357,146.728 246.522,151.344 245.981 C 152.617 245.832,154.114 245.718,154.670 245.727 C 156.320 245.756,161.034 248.405,159.436 248.405 C 159.184 248.405,158.160 248.930,157.162 249.570 C 155.203 250.827,154.240 250.873,150.941 249.864 C 147.631 248.852,140.584 250.958,138.076 253.708 C 137.103 254.775,136.457 255.158,135.637 255.155 C 130.321 255.136,129.813 252.151,134.808 250.283 C 137.160 249.403,137.485 248.926,135.989 248.551 C 134.149 248.089,131.067 248.695,128.288 250.064 C 125.098 251.635,124.645 251.670,121.380 250.599 C 119.394 249.946,118.674 249.865,117.660 250.176 C 115.644 250.795,115.309 250.177,116.935 248.838 C 120.626 245.795,111.394 246.072,105.388 249.185 C 103.000 250.422,101.437 250.559,99.733 249.677 C 98.971 249.283,98.053 249.142,97.095 249.270 C 95.750 249.451,95.511 249.341,94.276 247.974 C 92.791 246.330,91.269 245.403,90.053 245.403 C 88.717 245.403,89.581 244.722,92.962 243.108 C 96.524 241.408,96.405 241.415,102.627 242.569 C 106.455 243.279,111.469 243.312,113.051 242.637 C 116.342 241.235,117.446 236.797,115.270 233.712 C 113.695 231.479,113.034 228.404,112.175 219.325 C 111.608 213.334,111.618 213.352,107.124 209.788 C 94.056 199.421,90.482 192.996,86.864 173.358 C 84.078 158.236,83.420 155.552,81.560 151.722 C 80.642 149.832,79.209 147.510,78.375 146.563 L 76.859 144.841 73.983 144.827 C 70.510 144.811,67.711 144.175,64.810 142.742 C 62.102 141.405,61.504 141.679,60.968 144.506 C 59.999 149.615,57.047 142.525,57.038 135.069 C 57.032 129.740,58.516 126.432,62.857 122.102 C 66.177 118.789,66.825 117.696,65.974 116.845 C 65.531 116.402,65.381 116.573,64.960 117.999 M354.138 118.105 C 354.666 118.619,354.812 118.949,354.509 118.949 C 354.236 118.949,353.768 118.612,353.471 118.199 C 353.173 117.786,352.714 117.448,352.450 117.448 C 352.186 117.448,351.970 117.174,351.970 116.840 C 351.970 116.164,352.401 116.416,354.138 118.105 M109.147 120.691 C 109.360 121.074,110.010 122.736,110.592 124.384 C 111.351 126.533,111.900 127.504,112.536 127.821 C 113.606 128.354,113.956 128.861,114.443 130.582 C 114.648 131.304,115.427 132.537,116.174 133.322 C 117.295 134.499,117.496 134.942,117.315 135.844 C 117.098 136.931,120.634 140.705,121.615 140.432 C 121.800 140.380,121.951 140.479,121.951 140.652 C 121.951 140.825,122.666 141.711,123.539 142.622 C 125.216 144.370,124.733 143.235,122.764 140.800 C 121.408 139.122,119.413 136.018,117.951 133.310 C 115.757 129.245,115.161 128.223,114.400 127.215 C 114.005 126.693,112.799 124.929,111.719 123.295 C 109.977 120.658,108.045 118.702,109.147 120.691 M334.204 122.263 C 339.304 123.861,347.842 130.372,347.842 132.663 C 347.842 132.963,348.011 133.208,348.218 133.208 C 348.424 133.208,348.593 133.456,348.593 133.760 C 348.593 134.063,348.896 134.865,349.267 135.542 C 349.930 136.752,350.456 138.305,351.210 141.276 C 352.225 145.277,351.260 153.064,349.157 157.834 C 348.034 160.381,347.661 161.159,347.468 161.351 C 347.035 161.782,344.954 164.624,344.308 165.666 C 343.064 167.672,335.222 175.704,331.115 179.179 C 327.711 182.059,325.414 183.865,325.156 183.865 C 325.027 183.865,324.588 184.176,324.181 184.555 C 323.773 184.935,322.978 185.478,322.414 185.761 C 321.850 186.045,320.966 186.554,320.450 186.892 C 317.806 188.627,316.647 188.175,315.740 185.054 C 312.091 172.501,301.768 161.906,288.631 157.230 C 284.698 155.830,284.673 155.741,286.999 151.542 C 292.211 142.133,306.987 128.214,316.453 123.796 C 322.040 121.188,328.886 120.597,334.204 122.263 M70.324 122.087 C 70.217 122.368,70.284 123.846,70.475 125.370 L 70.822 128.143 70.871 124.859 C 70.917 121.738,70.761 120.949,70.324 122.087 M71.684 130.394 C 71.685 130.600,72.032 131.191,72.454 131.707 C 72.963 132.330,73.091 132.393,72.833 131.895 C 72.201 130.671,71.681 129.992,71.684 130.394 M73.223 133.208 C 73.223 133.518,73.369 134.109,73.546 134.522 C 73.749 134.995,73.868 135.064,73.868 134.709 C 73.868 134.400,73.723 133.809,73.546 133.396 C 73.343 132.923,73.223 132.853,73.223 133.208 M125.349 144.371 C 125.361 144.526,125.909 145.064,126.569 145.567 L 127.767 146.481 126.665 145.286 C 125.519 144.042,125.314 143.900,125.349 144.371 M89.986 146.742 C 90.872 148.341,91.009 148.451,91.111 147.657 C 91.263 146.483,90.647 145.360,89.716 145.116 C 89.035 144.938,89.057 145.067,89.986 146.742 M91.269 150.094 C 91.269 150.816,91.346 151.112,91.441 150.750 C 91.535 150.389,91.535 149.798,91.441 149.437 C 91.346 149.076,91.269 149.371,91.269 150.094 M355.301 156.386 C 358.400 162.177,351.275 173.548,336.314 186.687 C 330.300 191.969,321.722 196.911,319.194 196.550 C 317.649 196.330,318.931 192.120,320.543 192.120 C 320.922 192.120,324.701 189.145,327.933 186.304 C 329.106 185.272,331.491 183.214,333.232 181.730 C 336.510 178.937,341.605 173.866,342.589 172.418 C 342.899 171.962,344.469 169.853,346.079 167.731 C 347.689 165.609,349.356 163.178,349.783 162.330 C 352.304 157.324,354.523 154.933,355.301 156.386 M265.281 161.137 C 266.221 163.609,265.409 164.881,261.914 166.410 C 249.611 171.791,231.493 190.506,227.772 201.676 L 226.601 205.190 226.759 214.321 C 226.990 227.696,228.139 231.285,234.008 236.980 C 245.082 247.725,261.138 247.873,274.543 237.353 C 285.318 228.897,295.242 218.281,298.797 211.407 C 302.193 204.838,303.430 191.760,301.132 186.696 C 300.847 186.068,300.424 184.592,300.191 183.417 C 299.240 178.617,295.937 173.116,291.995 169.766 C 287.948 166.328,287.253 163.977,290.282 163.977 C 295.634 163.977,304.612 171.985,309.003 180.675 C 309.733 182.120,310.931 184.396,311.665 185.733 C 313.213 188.551,313.788 190.820,314.664 197.568 C 314.889 199.302,314.836 199.490,313.992 199.942 C 313.441 200.237,312.668 201.356,312.053 202.749 C 305.297 218.050,297.303 227.863,281.238 240.575 C 267.717 251.274,250.845 253.840,237.600 247.212 C 226.554 241.685,218.553 231.837,217.076 221.951 C 214.291 203.315,222.015 189.218,245.476 170.118 C 253.738 163.393,264.315 158.596,265.281 161.137 M286.928 168.090 C 290.365 171.575,292.308 173.819,292.308 174.307 C 292.308 174.462,292.535 174.776,292.812 175.006 C 293.747 175.778,295.693 179.688,295.273 179.948 C 295.054 180.083,294.643 179.864,294.361 179.461 C 293.767 178.614,289.496 175.688,287.119 174.500 C 284.195 173.039,282.940 174.010,284.298 176.685 C 285.500 179.052,288.920 184.240,289.279 184.240 C 289.468 184.240,290.134 184.751,290.758 185.375 C 291.990 186.606,297.328 189.493,298.374 189.493 C 299.231 189.493,300.188 190.911,300.188 192.181 C 300.188 193.746,299.546 193.807,297.980 192.392 C 297.194 191.682,295.498 190.386,294.210 189.511 C 291.517 187.682,285.185 181.497,284.587 180.110 C 284.364 179.596,283.828 178.415,283.395 177.486 C 281.547 173.523,281.324 164.728,283.072 164.728 C 283.369 164.728,285.104 166.241,286.928 168.090 M97.186 170.217 C 97.186 171.069,99.573 174.498,99.855 174.052 C 100.273 173.394,100.284 171.003,99.869 171.259 C 99.694 171.368,99.195 171.124,98.759 170.719 C 97.987 169.999,97.186 169.744,97.186 170.217 M266.336 175.891 C 266.549 176.459,266.998 177.852,267.334 178.987 C 267.956 181.084,268.439 182.328,269.153 183.677 C 269.371 184.090,270.039 185.356,270.638 186.492 C 271.794 188.686,274.138 191.944,275.848 193.733 C 276.418 194.329,276.935 194.936,276.997 195.081 C 277.093 195.303,280.355 198.096,283.124 200.326 C 284.733 201.623,291.650 205.051,293.434 205.436 C 297.681 206.354,298.229 207.145,296.685 210.131 C 294.552 214.256,293.903 215.192,290.503 219.044 C 289.820 219.817,288.736 221.126,288.094 221.951 C 284.259 226.882,271.670 236.865,266.417 239.141 C 250.113 246.206,232.698 236.283,230.909 218.909 C 230.680 216.679,231.824 209.472,232.653 207.920 C 232.831 207.588,233.509 206.220,234.162 204.878 C 238.801 195.340,252.734 181.307,262.846 175.988 C 265.485 174.600,265.849 174.590,266.336 175.891 M286.492 175.235 C 286.619 175.441,287.026 175.610,287.396 175.610 C 287.766 175.610,288.599 176.116,289.247 176.735 C 289.895 177.355,290.565 177.861,290.737 177.861 C 291.142 177.861,295.310 181.926,295.310 182.321 C 295.310 182.487,295.720 183.100,296.221 183.684 C 297.191 184.812,298.527 187.902,298.190 188.239 C 297.975 188.454,293.726 186.301,292.520 185.366 C 289.268 182.845,285.178 177.194,285.178 175.223 C 285.178 174.745,286.194 174.753,286.492 175.235 M276.173 189.762 C 276.173 190.350,281.094 195.113,281.707 195.118 C 282.483 195.125,282.265 194.795,280.206 192.849 C 279.123 191.824,277.881 190.650,277.446 190.240 C 276.630 189.468,276.173 189.296,276.173 189.762 M312.754 214.519 C 310.228 221.968,301.530 232.819,290.056 242.833 C 286.064 246.318,279.927 251.032,279.384 251.032 C 279.311 251.032,278.179 251.673,276.868 252.457 C 257.031 264.312,229.857 256.970,220.070 237.111 C 219.113 235.171,218.171 233.285,217.976 232.921 C 217.501 232.031,216.540 227.386,216.838 227.416 C 216.967 227.429,217.656 228.628,218.368 230.080 C 227.805 249.333,248.578 256.769,270.455 248.725 C 280.262 245.120,301.064 226.149,308.042 214.447 C 309.869 211.384,312.156 209.792,312.219 211.538 C 312.236 212.016,312.359 211.940,312.669 211.257 L 313.095 210.319 313.230 211.517 C 313.304 212.176,313.090 213.527,312.754 214.519 M128.763 225.422 C 128.574 225.783,128.295 226.670,128.143 227.392 C 127.427 230.803,123.816 236.580,121.797 237.547 C 117.196 239.750,120.454 244.844,125.108 242.724 C 126.145 242.251,127.955 243.080,127.955 244.028 C 127.955 247.514,137.512 246.268,139.052 242.581 C 139.725 240.970,139.486 240.383,137.218 238.086 C 135.386 236.231,134.108 233.783,131.876 227.853 C 130.618 224.509,129.641 223.746,128.763 225.422 M130.948 228.213 C 131.366 229.077,131.707 229.990,131.707 230.241 C 131.707 230.493,132.034 231.347,132.434 232.141 C 132.833 232.934,133.578 234.455,134.090 235.520 C 134.601 236.584,135.709 238.167,136.553 239.036 C 138.865 241.418,138.088 244.600,135.184 244.641 C 134.722 244.648,133.591 244.855,132.669 245.101 C 130.620 245.649,129.435 245.157,128.809 243.498 C 128.274 242.080,126.375 241.212,124.920 241.719 C 122.563 242.541,121.025 242.002,120.901 240.310 C 120.792 238.819,120.827 238.769,122.344 238.268 C 124.421 237.583,129.081 230.317,129.081 227.763 C 129.081 227.090,129.402 226.642,129.885 226.642 C 130.052 226.642,130.531 227.349,130.948 228.213 M185.326 236.717 C 185.793 237.373,186.629 238.145,187.184 238.432 L 188.193 238.953 188.053 237.488 C 187.939 236.285,187.769 236.022,187.109 236.017 C 186.666 236.015,185.893 235.902,185.390 235.768 L 184.476 235.523 185.326 236.717 M193.246 240.855 C 193.246 241.036,193.499 241.394,193.809 241.651 C 194.420 242.158,194.496 242.037,194.144 241.119 C 193.903 240.491,193.246 240.297,193.246 240.855 M209.568 248.983 L 208.443 249.497 210.069 249.514 C 211.163 249.525,211.646 249.385,211.546 249.085 C 211.329 248.432,210.832 248.407,209.568 248.983 " stroke="none" fill="#8a9196" fill-rule="evenodd"></path><path id="path4" d="M73.813 109.603 C 68.952 110.748,64.685 114.982,66.205 117.153 C 66.528 117.614,66.792 117.866,66.792 117.713 C 66.792 117.333,70.423 119.201,70.768 119.758 C 70.920 120.004,71.006 122.000,70.959 124.193 C 70.876 128.085,70.905 128.240,72.156 130.601 C 72.861 131.932,73.563 133.416,73.716 133.900 C 74.160 135.305,76.073 137.933,77.200 138.687 C 78.767 139.736,82.836 141.752,84.376 142.244 C 85.127 142.483,86.614 143.250,87.681 143.948 C 88.748 144.645,89.797 145.216,90.013 145.216 C 90.660 145.216,91.081 146.391,91.358 148.968 C 91.502 150.310,91.941 152.089,92.334 152.921 C 92.772 153.852,93.113 155.587,93.217 157.424 C 93.342 159.628,93.642 160.936,94.360 162.405 C 94.895 163.501,95.529 165.274,95.769 166.345 C 96.227 168.394,97.035 169.981,97.620 169.981 C 97.811 169.981,98.336 170.324,98.786 170.743 L 99.604 171.506 100.246 170.654 L 100.888 169.803 101.887 170.737 C 102.436 171.250,103.308 172.388,103.824 173.265 C 104.791 174.908,109.204 178.236,110.418 178.236 C 111.154 178.236,112.507 179.577,112.972 180.769 C 113.154 181.234,113.559 181.614,113.873 181.614 C 114.562 181.614,117.448 184.151,117.448 184.757 C 117.448 185.260,118.575 186.467,120.993 188.555 C 121.949 189.381,123.639 190.943,124.748 192.026 C 125.857 193.110,127.019 193.996,127.331 193.996 C 127.642 193.996,128.417 194.433,129.052 194.968 C 129.687 195.502,130.206 195.831,130.206 195.699 C 130.206 195.567,130.755 195.876,131.426 196.387 C 132.097 196.897,133.556 197.672,134.669 198.110 C 136.861 198.972,138.783 200.307,138.816 200.992 C 138.827 201.228,139.048 201.520,139.306 201.640 C 139.564 201.761,140.450 202.282,141.276 202.797 C 144.288 204.678,145.533 205.225,146.954 205.294 C 148.546 205.372,152.749 207.778,154.002 209.330 C 154.398 209.820,155.580 210.778,156.629 211.461 C 157.678 212.143,159.222 213.359,160.061 214.163 C 162.370 216.378,164.289 216.420,162.918 214.226 C 162.683 213.849,162.383 212.870,162.252 212.050 C 162.112 211.172,161.591 210.125,160.984 209.501 C 159.678 208.159,159.181 206.754,160.012 206.754 C 160.336 206.754,160.600 206.894,160.600 207.065 C 160.600 207.237,161.722 207.940,163.093 208.629 C 164.632 209.402,165.816 210.288,166.189 210.943 C 166.520 211.527,167.371 212.281,168.080 212.619 C 168.788 212.957,170.199 213.723,171.215 214.322 C 173.052 215.405,174.109 215.330,174.109 214.115 C 174.109 213.881,174.492 213.268,174.961 212.754 C 175.852 211.776,175.965 211.350,175.516 210.646 C 175.006 209.845,177.080 208.212,177.989 208.699 C 179.270 209.384,183.865 215.111,183.865 216.022 C 183.865 216.272,184.352 217.303,184.947 218.313 C 185.542 219.322,186.157 220.551,186.313 221.043 C 186.644 222.084,187.693 223.639,189.378 225.587 C 190.489 226.870,191.740 229.252,193.149 232.768 C 194.268 235.556,190.708 236.332,185.657 234.401 C 183.952 233.750,183.052 233.568,182.882 233.843 C 182.475 234.503,184.290 235.611,186.210 235.875 C 187.933 236.111,187.992 236.161,187.992 237.376 C 187.992 239.424,190.581 240.527,193.243 239.613 C 194.082 239.324,194.125 239.355,193.666 239.908 C 193.368 240.268,193.319 240.525,193.550 240.525 C 193.768 240.525,194.066 240.905,194.212 241.370 C 194.501 242.283,197.145 245.028,197.736 245.028 C 197.935 245.028,198.663 245.525,199.355 246.132 C 201.085 247.651,203.517 248.487,203.996 247.728 C 204.300 247.246,204.424 247.254,204.958 247.789 C 206.299 249.129,209.050 249.567,210.315 248.642 C 210.989 248.150,210.980 248.109,210.105 247.650 C 209.147 247.147,207.027 245.401,204.972 243.424 C 204.016 242.504,203.752 241.942,203.752 240.825 C 203.752 240.041,203.595 239.400,203.402 239.400 C 203.209 239.400,201.735 238.133,200.126 236.585 C 198.517 235.038,197.017 233.771,196.794 233.771 C 196.190 233.771,194.661 231.995,193.079 229.456 C 192.308 228.218,191.025 226.369,190.229 225.347 C 189.433 224.326,187.589 221.117,186.132 218.218 C 184.675 215.318,182.598 211.847,181.516 210.504 C 180.435 209.161,178.891 206.797,178.086 205.251 C 177.281 203.704,176.329 202.017,175.972 201.501 C 175.614 200.985,174.861 199.719,174.298 198.687 C 173.736 197.655,172.823 196.220,172.269 195.497 C 171.716 194.775,170.120 192.459,168.722 190.351 C 167.324 188.243,165.124 185.373,163.834 183.972 C 162.544 182.572,160.895 180.767,160.168 179.961 C 158.976 178.638,158.633 178.479,156.628 178.317 C 155.291 178.210,154.288 177.931,154.105 177.617 C 153.937 177.330,153.606 177.215,153.369 177.361 C 153.132 177.507,152.214 177.583,151.329 177.528 C 150.369 177.469,149.719 177.592,149.719 177.833 C 149.719 178.055,149.550 178.236,149.343 178.236 C 149.137 178.236,148.968 177.983,148.968 177.674 C 148.968 177.197,148.067 177.111,143.112 177.111 C 138.060 177.111,137.285 177.188,137.472 177.674 C 137.638 178.107,137.389 178.236,136.386 178.236 C 135.335 178.236,135.084 178.092,135.084 177.486 C 135.084 176.996,134.834 176.735,134.365 176.735 C 133.970 176.735,133.588 176.563,133.518 176.351 C 133.448 176.140,132.716 175.866,131.892 175.743 C 131.068 175.620,130.177 175.246,129.912 174.912 C 129.383 174.246,126.254 173.399,124.229 173.374 C 123.110 173.360,117.915 171.105,112.915 168.463 C 112.176 168.073,110.527 167.666,109.251 167.559 C 107.179 167.385,105.067 166.551,105.065 165.904 C 105.064 165.773,104.571 165.089,103.968 164.383 C 103.365 163.678,102.586 162.411,102.238 161.569 C 101.889 160.727,101.116 159.014,100.520 157.764 C 98.863 154.285,99.041 152.633,101.399 149.625 C 102.252 148.537,102.772 148.215,103.690 148.204 C 104.343 148.197,105.300 147.950,105.816 147.655 C 108.558 146.088,127.298 147.634,129.125 149.578 C 129.585 150.068,130.086 150.469,130.237 150.469 C 130.956 150.469,129.941 148.859,128.075 147.041 C 123.226 142.316,121.951 140.985,121.951 140.650 C 121.951 140.454,121.801 140.386,121.617 140.500 C 121.327 140.679,120.101 139.630,114.753 134.628 C 114.154 134.068,113.376 133.561,113.023 133.502 C 112.293 133.381,111.928 132.244,111.864 129.886 C 111.828 128.568,111.043 125.718,109.418 121.013 C 109.347 120.807,109.282 120.484,109.275 120.296 C 109.267 120.109,108.992 119.805,108.664 119.621 C 108.336 119.437,108.068 119.061,108.068 118.783 C 108.068 118.506,107.071 117.357,105.852 116.229 C 102.805 113.408,100.982 112.999,102.794 115.544 C 106.215 120.348,106.684 125.865,103.966 129.321 C 103.539 129.864,103.189 130.457,103.189 130.640 C 103.189 130.823,102.332 132.064,101.284 133.397 C 99.436 135.750,98.814 136.240,96.073 137.512 C 95.358 137.844,94.659 138.300,94.519 138.526 C 94.257 138.950,90.282 139.275,89.418 138.943 C 88.743 138.684,88.799 136.052,89.509 134.680 C 90.384 132.987,90.019 132.833,85.119 132.833 C 80.624 132.833,80.584 132.825,77.441 131.332 C 75.704 130.507,74.114 129.831,73.908 129.831 C 72.751 129.831,71.280 125.257,72.002 123.907 C 72.702 122.600,74.505 122.122,75.655 122.939 C 78.016 124.616,78.679 124.945,80.131 125.163 C 82.256 125.482,83.998 124.665,85.746 122.533 C 86.539 121.565,87.822 120.449,88.597 120.054 C 90.611 119.026,90.600 118.900,88.342 117.153 C 85.287 114.789,83.119 113.881,80.569 113.897 C 78.127 113.912,77.603 113.263,78.343 111.140 C 78.963 109.361,77.275 108.788,73.813 109.603 M84.298 115.779 C 86.503 117.460,86.743 119.402,85.093 122.199 C 83.118 125.546,78.385 125.343,76.207 121.819 C 73.452 117.361,79.981 112.486,84.298 115.779 M197.577 237.054 L 198.088 238.274 196.627 238.274 C 194.895 238.274,194.480 237.785,195.150 236.533 C 195.817 235.288,196.939 235.529,197.577 237.054 " stroke="none" fill="#c1a54d" fill-rule="evenodd"></path></g></svg>