<?xml version="1.0" encoding="UTF-8"?>
<!DOCTYPE svg PUBLIC "-//W3C//DTD SVG 1.1//EN" "http://www.w3.org/Graphics/SVG/1.1/DTD/svg11.dtd">
<svg xmlns="http://www.w3.org/2000/svg" version="1.1" width="1400px" height="763px" style="shape-rendering:geometricPrecision; text-rendering:geometricPrecision; image-rendering:optimizeQuality; fill-rule:evenodd; clip-rule:evenodd" xmlns:xlink="http://www.w3.org/1999/xlink">
<g><path style="opacity:1" fill="#619098" d="M 738.5,57.5 C 718.5,57.5 698.5,57.5 678.5,57.5C 698.501,54.8548 718.501,54.8548 738.5,57.5 Z"/></g>
<g><path style="opacity:1" fill="#66949b" d="M 673.5,57.5 C 671.365,59.369 668.698,60.0356 665.5,59.5C 667.905,58.2318 670.572,57.5651 673.5,57.5 Z"/></g>
<g><path style="opacity:1" fill="#00505d" d="M 673.5,57.5 C 675.167,57.5 676.833,57.5 678.5,57.5C 698.5,57.5 718.5,57.5 738.5,57.5C 740.167,57.5 741.833,57.5 743.5,57.5C 743.611,58.1174 743.944,58.6174 744.5,59C 746.473,59.4955 748.473,59.6621 750.5,59.5C 752.5,59.5 754.5,59.5 756.5,59.5C 757.552,61.256 759.219,61.9227 761.5,61.5C 762.5,61.5 763.5,61.5 764.5,61.5C 764.5,62.5 764.5,63.5 764.5,64.5C 769.5,65.1667 774.5,65.8333 779.5,66.5C 782.461,68.086 785.294,70.086 788,72.5C 788.342,70.3808 789.175,70.0474 790.5,71.5C 791.671,72.3446 793.005,73.0113 794.5,73.5C 795.923,75.5449 797.923,76.5449 800.5,76.5C 800.5,77.8333 801.167,78.5 802.5,78.5C 810.27,82.9378 815.937,89.2711 819.5,97.5C 819.427,99.0269 820.094,100.027 821.5,100.5C 821.781,104.188 822.281,107.855 823,111.5C 823.77,110.402 824.603,110.402 825.5,111.5C 827.232,122.132 828.898,132.799 830.5,143.5C 831.172,144.949 831.839,146.282 832.5,147.5C 832.5,152.5 832.5,157.5 832.5,162.5C 832.5,173.833 832.5,185.167 832.5,196.5C 832.5,201.5 832.5,206.5 832.5,211.5C 832.167,211.5 831.833,211.5 831.5,211.5C 829.143,225.175 827.143,239.175 825.5,253.5C 822.504,259.491 820.504,265.824 819.5,272.5C 818.833,274.833 818.167,277.167 817.5,279.5C 815.616,279.712 814.283,280.712 813.5,282.5C 812.579,284.777 811.913,287.11 811.5,289.5C 809.241,290.344 808.241,292.011 808.5,294.5C 806.145,298.855 802.812,302.188 798.5,304.5C 797.167,304.5 796.5,305.167 796.5,306.5C 795.833,306.5 795.167,306.5 794.5,306.5C 791.545,307.159 788.545,307.492 785.5,307.5C 785.5,308.5 785.5,309.5 785.5,310.5C 785.167,310.5 784.833,310.5 784.5,310.5C 782.473,310.338 780.473,310.505 778.5,311C 777.944,311.383 777.611,311.883 777.5,312.5C 777.167,312.5 776.833,312.5 776.5,312.5C 773.813,312.336 771.146,312.503 768.5,313C 767.944,313.383 767.611,313.883 767.5,314.5C 767.167,314.5 766.833,314.5 766.5,314.5C 761.833,314.5 757.167,314.5 752.5,314.5C 747.056,313.892 742.056,314.558 737.5,316.5C 724.898,314.919 712.232,314.252 699.5,314.5C 692.167,314.5 684.833,314.5 677.5,314.5C 677.389,313.883 677.056,313.383 676.5,313C 670.333,312.833 664.167,312.667 658,312.5C 651.462,312.504 645.295,313.17 639.5,314.5C 633.074,313.88 627.074,314.547 621.5,316.5C 615.626,317.644 609.626,318.311 603.5,318.5C 603.5,319.5 603.5,320.5 603.5,321.5C 601.442,322.933 599.108,323.6 596.5,323.5C 592.67,323.909 589.67,325.576 587.5,328.5C 587.5,329.167 587.167,329.5 586.5,329.5C 583.446,329.354 581.446,330.687 580.5,333.5C 577.5,333.833 575.833,335.5 575.5,338.5C 573.554,339.035 572.554,340.368 572.5,342.5C 569.745,345.917 567.412,349.583 565.5,353.5C 564.167,353.5 563.5,354.167 563.5,355.5C 563.5,356.167 563.5,356.833 563.5,357.5C 561.952,357.821 561.285,358.821 561.5,360.5C 561.5,360.833 561.5,361.167 561.5,361.5C 560.326,362.514 559.66,363.847 559.5,365.5C 559.5,366.167 559.5,366.833 559.5,367.5C 556.907,370.927 555.573,374.927 555.5,379.5C 555.5,379.833 555.5,380.167 555.5,380.5C 554.531,382.663 553.698,384.996 553,387.5C 552.144,393.193 551.31,398.859 550.5,404.5C 550.5,405.167 550.5,405.833 550.5,406.5C 548.631,408.635 547.964,411.302 548.5,414.5C 548.5,417.167 548.5,419.833 548.5,422.5C 546.692,423.918 546.025,425.918 546.5,428.5C 546.5,430.167 546.5,431.833 546.5,433.5C 545.25,433.577 544.417,434.244 544,435.5C 543.501,440.155 543.334,444.821 543.5,449.5C 538.167,449.5 532.833,449.5 527.5,449.5C 518.466,447.295 509.466,445.295 500.5,443.5C 500.5,442.5 500.5,441.5 500.5,440.5C 497.482,440.296 494.482,439.963 491.5,439.5C 488.55,438.692 485.883,437.358 483.5,435.5C 483.5,434.167 482.833,433.5 481.5,433.5C 479.448,430.968 476.782,429.301 473.5,428.5C 470.865,427.189 468.531,425.522 466.5,423.5C 465.931,420.665 464.264,418.999 461.5,418.5C 461.167,415.5 459.5,413.833 456.5,413.5C 456.116,411.071 455.449,408.737 454.5,406.5C 453.5,406.5 452.5,406.5 451.5,406.5C 450.167,406.5 449.5,405.833 449.5,404.5C 449.803,401.412 448.47,399.746 445.5,399.5C 445.715,397.821 445.048,396.821 443.5,396.5C 443.715,394.821 443.048,393.821 441.5,393.5C 441.5,393.167 441.5,392.833 441.5,392.5C 441.715,390.821 441.048,389.821 439.5,389.5C 439.063,384.905 437.396,380.905 434.5,377.5C 434.158,376.662 433.492,376.328 432.5,376.5C 432.5,375.5 432.5,374.5 432.5,373.5C 432.167,370.833 431.833,368.167 431.5,365.5C 430.5,365.5 429.5,365.5 428.5,365.5C 428.5,365.167 428.5,364.833 428.5,364.5C 428.274,360.708 427.44,357.041 426,353.5C 425.617,352.944 425.117,352.611 424.5,352.5C 424.5,352.167 424.5,351.833 424.5,351.5C 424.662,349.473 424.495,347.473 424,345.5C 423.617,344.944 423.117,344.611 422.5,344.5C 422.5,344.167 422.5,343.833 422.5,343.5C 420.743,322.204 420.243,300.871 421,279.5C 422.276,273.843 423.442,268.176 424.5,262.5C 425.741,258.818 427.408,255.318 429.5,252C 430.891,248.269 431.891,244.436 432.5,240.5C 432.614,238.282 433.28,236.282 434.5,234.5C 437.582,231.741 439.916,228.408 441.5,224.5C 443.364,223.18 445.031,221.513 446.5,219.5C 447.127,218.583 447.461,217.583 447.5,216.5C 448.402,214.659 449.736,213.326 451.5,212.5C 452.239,212.631 452.906,212.464 453.5,212C 454.748,210.6 455.748,209.1 456.5,207.5C 457.992,204.677 460.326,203.01 463.5,202.5C 464.71,202.068 465.71,201.401 466.5,200.5C 471.33,199.373 475.663,197.373 479.5,194.5C 481.898,194.741 483.898,194.074 485.5,192.5C 486.5,192.5 487.5,192.5 488.5,192.5C 492.329,193.069 495.663,192.402 498.5,190.5C 574.902,190.194 651.235,190.194 727.5,190.5C 728.8,188.777 729.467,186.61 729.5,184C 729.496,181.639 729.163,179.473 728.5,177.5C 677.177,175.504 625.511,174.838 573.5,175.5C 573.385,153.824 573.718,132.157 574.5,110.5C 574.5,108.833 574.5,107.167 574.5,105.5C 575.913,102.781 576.58,99.7814 576.5,96.5C 576.5,96.1667 576.5,95.8333 576.5,95.5C 578.372,91.3946 581.372,88.2279 585.5,86C 586.793,85.51 588.127,85.3433 589.5,85.5C 589.5,84.5 589.5,83.5 589.5,82.5C 593.216,81.6115 596.882,80.6115 600.5,79.5C 600.5,78.5 600.5,77.5 600.5,76.5C 600.833,76.5 601.167,76.5 601.5,76.5C 606.095,76.0631 610.095,74.3964 613.5,71.5C 613.833,71.5 614.167,71.5 614.5,71.5C 617.43,70.701 620.43,70.3677 623.5,70.5C 623.5,69.5 623.5,68.5 623.5,67.5C 624.5,67.5 625.5,67.5 626.5,67.5C 628.898,67.7406 630.898,67.0739 632.5,65.5C 632.833,65.5 633.167,65.5 633.5,65.5C 636.152,65.5905 638.485,64.9238 640.5,63.5C 641.167,63.5 641.833,63.5 642.5,63.5C 648.493,63.0006 654.493,62.5006 660.5,62C 661.942,61.6232 662.942,60.7899 663.5,59.5C 664.167,59.5 664.833,59.5 665.5,59.5C 668.698,60.0356 671.365,59.369 673.5,57.5 Z M 625.5,90.5 C 628.833,90.5 632.167,90.5 635.5,90.5C 638.583,92.0246 641.916,93.0246 645.5,93.5C 645.973,94.9063 646.973,95.573 648.5,95.5C 650.514,97.845 652.847,99.845 655.5,101.5C 663.14,112.738 664.474,124.738 659.5,137.5C 656.878,141.457 653.878,145.124 650.5,148.5C 648.125,149.902 645.791,151.235 643.5,152.5C 641.847,152.66 640.514,153.326 639.5,154.5C 637.5,154.5 635.5,154.5 633.5,154.5C 630.5,154.5 627.5,154.5 624.5,154.5C 623.5,154.5 622.5,154.5 621.5,154.5C 621.027,153.094 620.027,152.427 618.5,152.5C 616.938,152.267 615.605,151.6 614.5,150.5C 611.872,148.512 609.205,146.512 606.5,144.5C 606.262,142.596 605.262,141.262 603.5,140.5C 601.96,137.206 600.627,133.872 599.5,130.5C 599.5,125.833 599.5,121.167 599.5,116.5C 599.5,115.167 599.5,113.833 599.5,112.5C 600.5,112.167 601.167,111.5 601.5,110.5C 601.5,109.833 601.5,109.167 601.5,108.5C 602.401,107.71 603.068,106.71 603.5,105.5C 604.488,104.205 605.488,102.872 606.5,101.5C 608.5,100.167 610.167,98.5 611.5,96.5C 612.167,96.5 612.5,96.1667 612.5,95.5C 614.38,95.7709 615.713,95.1042 616.5,93.5C 619.67,92.7345 622.67,91.7345 625.5,90.5 Z"/></g>
<g><path style="opacity:1" fill="#6f9aa1" d="M 743.5,57.5 C 746.067,57.7215 748.401,58.3882 750.5,59.5C 748.473,59.6621 746.473,59.4955 744.5,59C 743.944,58.6174 743.611,58.1174 743.5,57.5 Z"/></g>
<g><path style="opacity:1" fill="#6b979e" d="M 659.5,59.5 C 657.562,61.1628 655.228,61.8294 652.5,61.5C 654.515,60.0762 656.848,59.4095 659.5,59.5 Z"/></g>
<g><path style="opacity:1" fill="#719ca3" d="M 756.5,59.5 C 758.403,59.7959 760.07,60.4625 761.5,61.5C 759.219,61.9227 757.552,61.256 756.5,59.5 Z"/></g>
<g><path style="opacity:1" fill="#1c636e" d="M 659.5,59.5 C 660.833,59.5 662.167,59.5 663.5,59.5C 662.942,60.7899 661.942,61.6232 660.5,62C 654.493,62.5006 648.493,63.0006 642.5,63.5C 645.507,61.8255 648.84,61.1588 652.5,61.5C 655.228,61.8294 657.562,61.1628 659.5,59.5 Z"/></g>
<g><path style="opacity:1" fill="#33727c" d="M 764.5,61.5 C 769.745,62.7208 774.745,64.3874 779.5,66.5C 774.5,65.8333 769.5,65.1667 764.5,64.5C 764.5,63.5 764.5,62.5 764.5,61.5 Z"/></g>
<g><path style="opacity:1" fill="#5c8d95" d="M 640.5,63.5 C 638.485,64.9238 636.152,65.5905 633.5,65.5C 635.515,64.0762 637.848,63.4095 640.5,63.5 Z"/></g>
<g><path style="opacity:1" fill="#4e848c" d="M 632.5,65.5 C 630.898,67.0739 628.898,67.7406 626.5,67.5C 628.102,65.9261 630.102,65.2594 632.5,65.5 Z"/></g>
<g><path style="opacity:1" fill="#3a767f" d="M 623.5,67.5 C 623.5,68.5 623.5,69.5 623.5,70.5C 620.43,70.3677 617.43,70.701 614.5,71.5C 617.209,69.8474 620.209,68.514 623.5,67.5 Z"/></g>
<g><path style="opacity:1" fill="#3a747e" d="M 779.5,66.5 C 783.901,66.9845 787.568,68.6512 790.5,71.5C 789.175,70.0474 788.342,70.3808 788,72.5C 785.294,70.086 782.461,68.086 779.5,66.5 Z"/></g>
<g><path style="opacity:1" fill="#568992" d="M 790.5,71.5 C 792.483,71.1568 793.817,71.8235 794.5,73.5C 793.005,73.0113 791.671,72.3446 790.5,71.5 Z"/></g>
<g><path style="opacity:1" fill="#35737d" d="M 613.5,71.5 C 610.095,74.3964 606.095,76.0631 601.5,76.5C 603.922,74.732 606.588,73.232 609.5,72C 610.793,71.51 612.127,71.3433 613.5,71.5 Z"/></g>
<g><path style="opacity:1" fill="#4a8189" d="M 794.5,73.5 C 796.97,73.6535 798.97,74.6535 800.5,76.5C 797.923,76.5449 795.923,75.5449 794.5,73.5 Z"/></g>
<g><path style="opacity:1" fill="#65939a" d="M 800.5,76.5 C 801.833,76.5 802.5,77.1667 802.5,78.5C 802.5,77.1667 801.833,76.5 800.5,76.5 Z"/></g>
<g><path style="opacity:1" fill="#2f6e78" d="M 600.5,76.5 C 600.5,77.5 600.5,78.5 600.5,79.5C 596.882,80.6115 593.216,81.6115 589.5,82.5C 592.723,79.7532 596.389,77.7532 600.5,76.5 Z"/></g>
<g><path style="opacity:1" fill="#31717a" d="M 589.5,82.5 C 589.5,83.5 589.5,84.5 589.5,85.5C 588.127,85.3433 586.793,85.51 585.5,86C 581.372,88.2279 578.372,91.3946 576.5,95.5C 576.372,93.3453 576.872,91.3453 578,89.5C 581.473,86.5164 585.306,84.1831 589.5,82.5 Z"/></g>
<g><path style="opacity:1" fill="#4e838c" d="M 625.5,90.5 C 622.67,91.7345 619.67,92.7345 616.5,93.5C 618.896,91.0485 621.896,90.0485 625.5,90.5 Z"/></g>
<g><path style="opacity:1" fill="#3f7982" d="M 635.5,90.5 C 637.857,90.3367 640.19,90.5034 642.5,91C 643.942,91.3768 644.942,92.2101 645.5,93.5C 641.916,93.0246 638.583,92.0246 635.5,90.5 Z"/></g>
<g><path style="opacity:1" fill="#5b8c95" d="M 616.5,93.5 C 615.713,95.1042 614.38,95.7709 612.5,95.5C 613.514,94.3263 614.847,93.6596 616.5,93.5 Z"/></g>
<g><path style="opacity:1" fill="#4f858e" d="M 645.5,93.5 C 647.027,93.427 648.027,94.0937 648.5,95.5C 646.973,95.573 645.973,94.9063 645.5,93.5 Z"/></g>
<g><path style="opacity:1" fill="#619099" d="M 819.5,97.5 C 820.906,97.9731 821.573,98.9731 821.5,100.5C 820.094,100.027 819.427,99.0269 819.5,97.5 Z"/></g>
<g><path style="opacity:1" fill="#63939a" d="M 576.5,96.5 C 576.58,99.7814 575.913,102.781 574.5,105.5C 574.42,102.219 575.087,99.2186 576.5,96.5 Z"/></g>
<g><path style="opacity:1" fill="#39757f" d="M 611.5,96.5 C 610.167,98.5 608.5,100.167 606.5,101.5C 606.183,97.8284 607.849,96.1617 611.5,96.5 Z"/></g>
<g><path style="opacity:1" fill="#68969d" d="M 603.5,105.5 C 603.068,106.71 602.401,107.71 601.5,108.5C 601.285,106.821 601.952,105.821 603.5,105.5 Z"/></g>
<g><path style="opacity:1" fill="#51858e" d="M 655.5,101.5 C 656.735,101.721 657.735,102.388 658.5,103.5C 660.277,106.72 661.777,110.053 663,113.5C 663.667,120.167 663.667,126.833 663,133.5C 662.26,135.319 661.093,136.652 659.5,137.5C 664.474,124.738 663.14,112.738 655.5,101.5 Z"/></g>
<g><path style="opacity:1" fill="#35717b" d="M 821.5,100.5 C 823.584,103.801 824.918,107.468 825.5,111.5C 824.603,110.402 823.77,110.402 823,111.5C 822.281,107.855 821.781,104.188 821.5,100.5 Z"/></g>
<g><path style="opacity:1" fill="#86abb0" d="M 601.5,110.5 C 601.167,111.5 600.5,112.167 599.5,112.5C 599.5,111.167 600.167,110.5 601.5,110.5 Z"/></g>
<g><path style="opacity:1" fill="#4c828b" d="M 825.5,111.5 C 829.271,123.105 831.604,135.105 832.5,147.5C 831.839,146.282 831.172,144.949 830.5,143.5C 828.898,132.799 827.232,122.132 825.5,111.5 Z"/></g>
<g><path style="opacity:1" fill="#68969d" d="M 599.5,116.5 C 599.5,121.167 599.5,125.833 599.5,130.5C 598.883,130.389 598.383,130.056 598,129.5C 597.333,125.5 597.333,121.5 598,117.5C 598.383,116.944 598.883,116.611 599.5,116.5 Z"/></g>
<g><path style="opacity:1" fill="#4c828b" d="M 574.5,110.5 C 573.718,132.157 573.385,153.824 573.5,175.5C 625.511,174.838 677.177,175.504 728.5,177.5C 676.5,177.5 624.5,177.5 572.5,177.5C 572.333,157.831 572.5,138.164 573,118.5C 573.183,115.635 573.683,112.969 574.5,110.5 Z"/></g>
<g><path style="opacity:1" fill="#67959d" d="M 603.5,140.5 C 605.262,141.262 606.262,142.596 606.5,144.5C 604.738,143.738 603.738,142.404 603.5,140.5 Z"/></g>
<g><path style="opacity:1" fill="#447d86" d="M 606.5,144.5 C 609.205,146.512 611.872,148.512 614.5,150.5C 610.288,150.409 607.621,148.409 606.5,144.5 Z"/></g>
<g><path style="opacity:1" fill="#51868f" d="M 650.5,148.5 C 649.191,151.451 646.857,152.784 643.5,152.5C 645.791,151.235 648.125,149.902 650.5,148.5 Z"/></g>
<g><path style="opacity:1" fill="#67959c" d="M 618.5,152.5 C 620.027,152.427 621.027,153.094 621.5,154.5C 619.821,154.715 618.821,154.048 618.5,152.5 Z"/></g>
<g><path style="opacity:1" fill="#66959c" d="M 643.5,152.5 C 642.713,154.104 641.38,154.771 639.5,154.5C 640.514,153.326 641.847,152.66 643.5,152.5 Z"/></g>
<g><path style="opacity:1" fill="#609098" d="M 624.5,154.5 C 627.5,154.5 630.5,154.5 633.5,154.5C 632.486,155.765 630.986,156.431 629,156.5C 627.014,156.431 625.514,155.765 624.5,154.5 Z"/></g>
<g><path style="opacity:1" fill="#80a6ac" d="M 832.5,162.5 C 833.222,162.918 833.722,163.584 834,164.5C 834.667,174.833 834.667,185.167 834,195.5C 833.617,196.056 833.117,196.389 832.5,196.5C 832.5,185.167 832.5,173.833 832.5,162.5 Z"/></g>
<g><path style="opacity:1" fill="#4d848c" d="M 728.5,177.5 C 729.163,179.473 729.496,181.639 729.5,184C 729.467,186.61 728.8,188.777 727.5,190.5C 728.436,186.265 728.769,181.931 728.5,177.5 Z"/></g>
<g><path style="opacity:1" fill="#417b85" d="M 498.5,190.5 C 495.663,192.402 492.329,193.069 488.5,192.5C 488.918,191.778 489.584,191.278 490.5,191C 493.146,190.503 495.813,190.336 498.5,190.5 Z"/></g>
<g><path style="opacity:1" fill="#5a8c94" d="M 485.5,192.5 C 483.898,194.074 481.898,194.741 479.5,194.5C 481.102,192.926 483.102,192.259 485.5,192.5 Z"/></g>
<g><path style="opacity:1" fill="#407b84" d="M 479.5,194.5 C 475.663,197.373 471.33,199.373 466.5,200.5C 470.167,197.374 474.501,195.374 479.5,194.5 Z"/></g>
<g><path style="opacity:1" fill="#488089" d="M 876.5,197.5 C 869.5,197.5 862.5,197.5 855.5,197.5C 854.963,203.65 854.296,209.65 853.5,215.5C 853.21,209.439 853.543,203.439 854.5,197.5C 861.99,196.181 869.323,196.181 876.5,197.5 Z"/></g>
<g><path style="opacity:1" fill="#00505d" d="M 876.5,197.5 C 883.023,200.176 890.023,201.842 897.5,202.5C 899.415,202.216 901.081,202.549 902.5,203.5C 903.183,205.176 904.517,205.843 906.5,205.5C 907.183,207.176 908.517,207.843 910.5,207.5C 911.167,207.5 911.833,207.5 912.5,207.5C 912.5,208.5 912.5,209.5 912.5,210.5C 914.861,210.674 917.194,211.007 919.5,211.5C 919.5,212.5 919.5,213.5 919.5,214.5C 922.549,215.306 925.549,216.306 928.5,217.5C 932.749,219.088 936.082,221.755 938.5,225.5C 939.956,227.284 940.956,229.284 941.5,231.5C 943.216,231.629 944.883,231.962 946.5,232.5C 948.058,236.063 950.391,239.063 953.5,241.5C 953.833,241.5 954.167,241.5 954.5,241.5C 954.241,243.989 955.241,245.656 957.5,246.5C 957.685,248.196 958.519,249.529 960,250.5C 960.333,252.5 960.667,254.5 961,256.5C 961.342,254.381 962.175,254.047 963.5,255.5C 965.199,257.566 966.532,259.9 967.5,262.5C 968.121,266.409 969.788,269.742 972.5,272.5C 972.5,272.833 972.5,273.167 972.5,273.5C 973.155,277.635 974.322,281.635 976,285.5C 976.417,286.756 977.25,287.423 978.5,287.5C 979.758,290.694 980.424,294.027 980.5,297.5C 980.077,299.781 980.744,301.448 982.5,302.5C 982.5,304.167 982.5,305.833 982.5,307.5C 981.945,311.012 982.612,314.012 984.5,316.5C 984.5,318.167 984.5,319.833 984.5,321.5C 984.5,334.167 984.5,346.833 984.5,359.5C 984.5,362.167 984.5,364.833 984.5,367.5C 982.744,368.552 982.077,370.219 982.5,372.5C 982.5,373.833 982.5,375.167 982.5,376.5C 980.72,377.99 980.054,379.99 980.5,382.5C 980.784,384.415 980.451,386.081 979.5,387.5C 977.557,389.971 976.557,392.971 976.5,396.5C 976.598,398.553 975.931,400.22 974.5,401.5C 971.386,406.065 969.053,411.065 967.5,416.5C 966.167,416.5 965.5,417.167 965.5,418.5C 965.5,419.167 965.5,419.833 965.5,420.5C 964.5,420.5 963.5,420.5 962.5,420.5C 960.164,424.835 957.831,429.168 955.5,433.5C 955.167,434.5 954.5,435.167 953.5,435.5C 950.208,437.434 946.875,439.434 943.5,441.5C 942.147,442.524 941.48,443.857 941.5,445.5C 939.821,445.285 938.821,445.952 938.5,447.5C 936.574,449.293 934.241,450.293 931.5,450.5C 930.167,450.5 929.5,451.167 929.5,452.5C 928.167,452.5 926.833,452.5 925.5,452.5C 924.167,452.5 923.5,453.167 923.5,454.5C 922.167,454.5 920.833,454.5 919.5,454.5C 916.15,454.335 912.817,454.502 909.5,455C 908.944,455.383 908.611,455.883 908.5,456.5C 829.502,457.203 750.502,457.537 671.5,457.5C 671.5,461.5 671.5,465.5 671.5,469.5C 723.156,471.496 775.156,472.162 827.5,471.5C 828.655,499.458 826.988,527.125 822.5,554.5C 821.305,556.121 820.305,557.787 819.5,559.5C 818.833,560.167 818.167,560.833 817.5,561.5C 813.491,561.539 810.491,563.206 808.5,566.5C 808.167,566.5 807.833,566.5 807.5,566.5C 805.821,566.285 804.821,566.952 804.5,568.5C 804.167,568.5 803.833,568.5 803.5,568.5C 801.821,568.285 800.821,568.952 800.5,570.5C 797.519,570.182 795.185,571.182 793.5,573.5C 792.609,574.11 791.609,574.443 790.5,574.5C 783.604,576.323 776.604,577.656 769.5,578.5C 769.5,579.5 769.5,580.5 769.5,581.5C 768.5,581.5 767.5,581.5 766.5,581.5C 764.302,581.12 762.635,581.787 761.5,583.5C 760.167,583.5 758.833,583.5 757.5,583.5C 755.219,583.077 753.552,583.744 752.5,585.5C 751.167,585.5 749.833,585.5 748.5,585.5C 744.988,584.945 741.988,585.612 739.5,587.5C 731.42,587.403 723.42,588.07 715.5,589.5C 695.103,589.963 674.769,589.296 654.5,587.5C 649.296,586.355 643.963,585.689 638.5,585.5C 638.167,585.5 637.833,585.5 637.5,585.5C 636.082,583.692 634.082,583.025 631.5,583.5C 630.5,583.5 629.5,583.5 628.5,583.5C 628.586,582.504 628.252,581.671 627.5,581C 623.309,579.255 618.976,578.088 614.5,577.5C 609.009,574.253 603.342,571.253 597.5,568.5C 597.5,567.167 596.833,566.5 595.5,566.5C 595.167,566.5 594.833,566.5 594.5,566.5C 594.5,564.5 593.5,563.5 591.5,563.5C 589.833,562.5 588.5,561.167 587.5,559.5C 586.89,557.566 585.89,555.899 584.5,554.5C 582.952,554.179 582.285,553.179 582.5,551.5C 582.5,550.167 581.833,549.5 580.5,549.5C 580.5,548.833 580.5,548.167 580.5,547.5C 580.245,545.033 579.245,543.033 577.5,541.5C 577.5,538.5 577.5,535.5 577.5,532.5C 576.5,532.5 575.5,532.5 574.5,532.5C 574.5,531.833 574.5,531.167 574.5,530.5C 574.88,528.302 574.213,526.635 572.5,525.5C 572.5,524.5 572.5,523.5 572.5,522.5C 573.01,519.612 572.344,517.279 570.5,515.5C 570.5,514.167 570.5,512.833 570.5,511.5C 570.666,505.158 570.5,498.825 570,492.5C 569.667,492.833 569.333,493.167 569,493.5C 568.5,474.17 568.333,454.836 568.5,435.5C 568.5,434.833 568.5,434.167 568.5,433.5C 570.43,429.627 571.097,425.294 570.5,420.5C 570.5,419.167 570.5,417.833 570.5,416.5C 572.344,414.721 573.01,412.388 572.5,409.5C 572.5,409.167 572.5,408.833 572.5,408.5C 573.5,408.5 574.5,408.5 575.5,408.5C 575.36,402.464 575.693,396.464 576.5,390.5C 576.5,389.5 576.5,388.5 576.5,387.5C 580.288,383.325 582.288,378.325 582.5,372.5C 585.227,369.033 586.894,365.033 587.5,360.5C 588.584,357.996 589.917,355.663 591.5,353.5C 593.133,352.055 594.966,350.721 597,349.5C 597.483,348.552 597.649,347.552 597.5,346.5C 597.5,345.167 598.167,344.5 599.5,344.5C 602.518,343.438 605.518,342.271 608.5,341C 609.381,340.292 610.047,339.458 610.5,338.5C 612.479,336.832 614.812,336.166 617.5,336.5C 619.698,336.88 621.365,336.213 622.5,334.5C 622.833,334.5 623.167,334.5 623.5,334.5C 626.187,334.664 628.854,334.497 631.5,334C 632.416,333.722 633.082,333.222 633.5,332.5C 646.839,331.944 660.173,331.277 673.5,330.5C 673.611,331.117 673.944,331.617 674.5,332C 684.161,332.5 693.828,332.666 703.5,332.5C 728.844,333.963 754.177,333.797 779.5,332C 782.647,331.044 785.647,329.877 788.5,328.5C 790.527,328.662 792.527,328.495 794.5,328C 795.056,327.617 795.389,327.117 795.5,326.5C 799.548,324.391 803.881,322.725 808.5,321.5C 809.833,321.5 810.5,320.833 810.5,319.5C 812.67,317.914 815.004,316.58 817.5,315.5C 819.749,314.92 821.415,313.587 822.5,311.5C 824.824,308.177 827.491,305.177 830.5,302.5C 832.822,301.198 834.155,299.198 834.5,296.5C 836.727,294.771 837.727,292.438 837.5,289.5C 840.543,287.409 841.876,284.409 841.5,280.5C 842.117,280.389 842.617,280.056 843,279.5C 843.495,277.527 843.662,275.527 843.5,273.5C 844.117,273.389 844.617,273.056 845,272.5C 845.497,270.19 845.663,267.857 845.5,265.5C 845.5,264.833 845.5,264.167 845.5,263.5C 846.117,263.389 846.617,263.056 847,262.5C 847.497,260.19 847.663,257.857 847.5,255.5C 847.5,254.833 847.5,254.167 847.5,253.5C 849.223,251.22 849.889,248.553 849.5,245.5C 849.5,243.833 849.5,242.167 849.5,240.5C 851.04,238.162 851.706,235.495 851.5,232.5C 851.5,229.833 851.5,227.167 851.5,224.5C 852.117,224.389 852.617,224.056 853,223.5C 853.497,220.854 853.664,218.187 853.5,215.5C 854.296,209.65 854.963,203.65 855.5,197.5C 862.5,197.5 869.5,197.5 876.5,197.5 Z M 775.5,488.5 C 779.571,489.747 783.238,491.747 786.5,494.5C 786.5,495.833 787.167,496.5 788.5,496.5C 788.5,497.833 789.167,498.5 790.5,498.5C 791.11,500.434 792.11,502.101 793.5,503.5C 793.903,506.486 794.903,509.152 796.5,511.5C 796.5,515.833 796.5,520.167 796.5,524.5C 796.5,524.833 796.5,525.167 796.5,525.5C 794.977,529.704 792.977,533.704 790.5,537.5C 789.197,539.142 787.864,540.809 786.5,542.5C 780.987,546.548 774.987,549.215 768.5,550.5C 761.918,550.513 755.585,549.513 749.5,547.5C 747.14,545.147 744.473,543.147 741.5,541.5C 740.598,539.659 739.264,538.326 737.5,537.5C 736.912,534.937 735.912,532.604 734.5,530.5C 734.204,528.597 733.537,526.93 732.5,525.5C 732.5,525.167 732.5,524.833 732.5,524.5C 732.5,520.167 732.5,515.833 732.5,511.5C 734.02,509.11 735.02,506.443 735.5,503.5C 736.833,503.5 737.5,502.833 737.5,501.5C 737.5,500.833 737.5,500.167 737.5,499.5C 739.144,499.19 740.144,498.19 740.5,496.5C 741.5,496.167 742.167,495.5 742.5,494.5C 744.754,493.876 746.421,492.543 747.5,490.5C 749.514,490.608 751.18,489.942 752.5,488.5C 760.18,485.873 767.847,485.873 775.5,488.5 Z"/></g>
<g><path style="opacity:1" fill="#65939b" d="M 466.5,200.5 C 465.71,201.401 464.71,202.068 463.5,202.5C 463.821,200.952 464.821,200.285 466.5,200.5 Z"/></g>
<g><path style="opacity:1" fill="#417b84" d="M 876.5,197.5 C 883.299,198.016 889.965,199.182 896.5,201C 897.056,201.383 897.389,201.883 897.5,202.5C 890.023,201.842 883.023,200.176 876.5,197.5 Z"/></g>
<g><path style="opacity:1" fill="#7aa2a8" d="M 902.5,203.5 C 903.995,203.989 905.329,204.655 906.5,205.5C 904.517,205.843 903.183,205.176 902.5,203.5 Z"/></g>
<g><path style="opacity:1" fill="#538890" d="M 906.5,205.5 C 908.38,205.229 909.713,205.896 910.5,207.5C 908.517,207.843 907.183,207.176 906.5,205.5 Z"/></g>
<g><path style="opacity:1" fill="#407983" d="M 912.5,207.5 C 914.873,208.839 917.207,210.172 919.5,211.5C 917.194,211.007 914.861,210.674 912.5,210.5C 912.5,209.5 912.5,208.5 912.5,207.5 Z"/></g>
<g><path style="opacity:1" fill="#3a7781" d="M 456.5,207.5 C 455.748,209.1 454.748,210.6 453.5,212C 452.906,212.464 452.239,212.631 451.5,212.5C 452.082,211.069 452.915,209.736 454,208.5C 454.671,207.748 455.504,207.414 456.5,207.5 Z"/></g>
<g><path style="opacity:1" fill="#3f7a83" d="M 919.5,211.5 C 923.025,212.759 926.025,214.759 928.5,217.5C 925.549,216.306 922.549,215.306 919.5,214.5C 919.5,213.5 919.5,212.5 919.5,211.5 Z"/></g>
<g><path style="opacity:1" fill="#6a989f" d="M 831.5,211.5 C 831.833,211.5 832.167,211.5 832.5,211.5C 832.749,215.458 832.082,219.124 830.5,222.5C 830.942,218.846 831.276,215.179 831.5,211.5 Z"/></g>
<g><path style="opacity:1" fill="#3b7781" d="M 447.5,216.5 C 447.461,217.583 447.127,218.583 446.5,219.5C 445.031,221.513 443.364,223.18 441.5,224.5C 442.353,220.98 444.353,218.313 447.5,216.5 Z"/></g>
<g><path style="opacity:1" fill="#5c8d95" d="M 853.5,215.5 C 853.664,218.187 853.497,220.854 853,223.5C 852.617,224.056 852.117,224.389 851.5,224.5C 851.336,221.813 851.503,219.146 852,216.5C 852.383,215.944 852.883,215.611 853.5,215.5 Z"/></g>
<g><path style="opacity:1" fill="#467e87" d="M 441.5,224.5 C 439.916,228.408 437.582,231.741 434.5,234.5C 436.054,230.614 438.387,227.281 441.5,224.5 Z"/></g>
<g><path style="opacity:1" fill="#33707a" d="M 938.5,225.5 C 941.764,227.094 944.431,229.427 946.5,232.5C 944.883,231.962 943.216,231.629 941.5,231.5C 940.956,229.284 939.956,227.284 938.5,225.5 Z"/></g>
<g><path style="opacity:1" fill="#3d7982" d="M 831.5,211.5 C 831.276,215.179 830.942,218.846 830.5,222.5C 830.028,233.15 828.362,243.483 825.5,253.5C 827.143,239.175 829.143,225.175 831.5,211.5 Z"/></g>
<g><path style="opacity:1" fill="#447e86" d="M 946.5,232.5 C 949.609,234.937 951.942,237.937 953.5,241.5C 950.391,239.063 948.058,236.063 946.5,232.5 Z"/></g>
<g><path style="opacity:1" fill="#5d8f96" d="M 851.5,232.5 C 851.706,235.495 851.04,238.162 849.5,240.5C 849.111,237.447 849.777,234.78 851.5,232.5 Z"/></g>
<g><path style="opacity:1" fill="#407a83" d="M 954.5,241.5 C 955.89,242.899 956.89,244.566 957.5,246.5C 955.241,245.656 954.241,243.989 954.5,241.5 Z"/></g>
<g><path style="opacity:1" fill="#558a91" d="M 849.5,245.5 C 849.889,248.553 849.223,251.22 847.5,253.5C 847.294,250.505 847.96,247.838 849.5,245.5 Z"/></g>
<g><path style="opacity:1" fill="#306e78" d="M 432.5,240.5 C 431.891,244.436 430.891,248.269 429.5,252C 427.408,255.318 425.741,258.818 424.5,262.5C 424.5,261.833 424.5,261.167 424.5,260.5C 425.823,253.177 428.49,246.51 432.5,240.5 Z"/></g>
<g><path style="opacity:1" fill="#3a747d" d="M 957.5,246.5 C 960.737,248.63 962.737,251.63 963.5,255.5C 962.175,254.047 961.342,254.381 961,256.5C 960.667,254.5 960.333,252.5 960,250.5C 958.519,249.529 957.685,248.196 957.5,246.5 Z"/></g>
<g><path style="opacity:1" fill="#558891" d="M 825.5,253.5 C 824.311,260.182 822.311,266.515 819.5,272.5C 820.504,265.824 822.504,259.491 825.5,253.5 Z"/></g>
<g><path style="opacity:1" fill="#4d848c" d="M 847.5,255.5 C 847.663,257.857 847.497,260.19 847,262.5C 846.617,263.056 846.117,263.389 845.5,263.5C 845.802,260.627 846.469,257.961 847.5,255.5 Z"/></g>
<g><path style="opacity:1" fill="#467f88" d="M 967.5,262.5 C 969.922,265.416 971.588,268.749 972.5,272.5C 969.788,269.742 968.121,266.409 967.5,262.5 Z"/></g>
<g><path style="opacity:1" fill="#3b7781" d="M 845.5,265.5 C 845.663,267.857 845.497,270.19 845,272.5C 844.617,273.056 844.117,273.389 843.5,273.5C 843.565,270.572 844.232,267.905 845.5,265.5 Z"/></g>
<g><path style="opacity:1" fill="#3d7882" d="M 843.5,273.5 C 843.662,275.527 843.495,277.527 843,279.5C 842.617,280.056 842.117,280.389 841.5,280.5C 841.41,277.848 842.076,275.515 843.5,273.5 Z"/></g>
<g><path style="opacity:1" fill="#37747e" d="M 817.5,279.5 C 816,283.172 814,286.505 811.5,289.5C 811.913,287.11 812.579,284.777 813.5,282.5C 814.283,280.712 815.616,279.712 817.5,279.5 Z"/></g>
<g><path style="opacity:1" fill="#427c85" d="M 972.5,273.5 C 975.389,277.628 977.389,282.294 978.5,287.5C 977.25,287.423 976.417,286.756 976,285.5C 974.322,281.635 973.155,277.635 972.5,273.5 Z"/></g>
<g><path style="opacity:1" fill="#3c7780" d="M 841.5,280.5 C 841.876,284.409 840.543,287.409 837.5,289.5C 838.463,286.256 839.796,283.256 841.5,280.5 Z"/></g>
<g><path style="opacity:1" fill="#3e7881" d="M 811.5,289.5 C 810.89,291.434 809.89,293.101 808.5,294.5C 808.241,292.011 809.241,290.344 811.5,289.5 Z"/></g>
<g><path style="opacity:1" fill="#3e7a83" d="M 837.5,289.5 C 837.727,292.438 836.727,294.771 834.5,296.5C 835.088,293.937 836.088,291.604 837.5,289.5 Z"/></g>
<g><path style="opacity:1" fill="#4a818a" d="M 424.5,260.5 C 424.5,261.167 424.5,261.833 424.5,262.5C 423.442,268.176 422.276,273.843 421,279.5C 420.243,300.871 420.743,322.204 422.5,343.5C 419.737,331.32 418.404,318.82 418.5,306C 418.099,290.349 420.099,275.182 424.5,260.5 Z"/></g>
<g><path style="opacity:1" fill="#417a84" d="M 834.5,296.5 C 834.155,299.198 832.822,301.198 830.5,302.5C 831.34,300.147 832.674,298.147 834.5,296.5 Z"/></g>
<g><path style="opacity:1" fill="#6b979f" d="M 980.5,297.5 C 981.931,298.78 982.598,300.447 982.5,302.5C 980.744,301.448 980.077,299.781 980.5,297.5 Z"/></g>
<g><path style="opacity:1" fill="#7da5ac" d="M 798.5,304.5 C 798.167,305.5 797.5,306.167 796.5,306.5C 796.5,305.167 797.167,304.5 798.5,304.5 Z"/></g>
<g><path style="opacity:1" fill="#3a757e" d="M 794.5,306.5 C 791.744,308.204 788.744,309.537 785.5,310.5C 785.5,309.5 785.5,308.5 785.5,307.5C 788.545,307.492 791.545,307.159 794.5,306.5 Z"/></g>
<g><path style="opacity:1" fill="#5c8d95" d="M 784.5,310.5 C 782.485,311.924 780.152,312.59 777.5,312.5C 777.611,311.883 777.944,311.383 778.5,311C 780.473,310.505 782.473,310.338 784.5,310.5 Z"/></g>
<g><path style="opacity:1" fill="#52868f" d="M 822.5,311.5 C 821.415,313.587 819.749,314.92 817.5,315.5C 818.585,313.413 820.251,312.08 822.5,311.5 Z"/></g>
<g><path style="opacity:1" fill="#2d6f79" d="M 677.5,314.5 C 677.167,314.5 676.833,314.5 676.5,314.5C 664.167,314.5 651.833,314.5 639.5,314.5C 645.295,313.17 651.462,312.504 658,312.5C 664.167,312.667 670.333,312.833 676.5,313C 677.056,313.383 677.389,313.883 677.5,314.5 Z"/></g>
<g><path style="opacity:1" fill="#528790" d="M 776.5,312.5 C 773.781,313.913 770.781,314.58 767.5,314.5C 767.611,313.883 767.944,313.383 768.5,313C 771.146,312.503 773.813,312.336 776.5,312.5 Z"/></g>
<g><path style="opacity:1" fill="#5d8e95" d="M 639.5,314.5 C 633.688,315.577 627.688,316.243 621.5,316.5C 627.074,314.547 633.074,313.88 639.5,314.5 Z"/></g>
<g><path style="opacity:1" fill="#6c999f" d="M 676.5,314.5 C 676.833,314.5 677.167,314.5 677.5,314.5C 684.833,314.5 692.167,314.5 699.5,314.5C 702.833,315.167 706.167,315.833 709.5,316.5C 698.327,316.161 687.327,315.494 676.5,314.5 Z"/></g>
<g><path style="opacity:1" fill="#487f89" d="M 699.5,314.5 C 712.232,314.252 724.898,314.919 737.5,316.5C 741.5,316.5 745.5,316.5 749.5,316.5C 736.307,317.787 722.974,317.787 709.5,316.5C 706.167,315.833 702.833,315.167 699.5,314.5 Z"/></g>
<g><path style="opacity:1" fill="#65939a" d="M 752.5,314.5 C 757.167,314.5 761.833,314.5 766.5,314.5C 762.036,315.644 757.37,316.31 752.5,316.5C 752.5,315.833 752.5,315.167 752.5,314.5 Z"/></g>
<g><path style="opacity:1" fill="#4b828b" d="M 982.5,307.5 C 984.118,310.171 984.785,313.171 984.5,316.5C 982.612,314.012 981.945,311.012 982.5,307.5 Z"/></g>
<g><path style="opacity:1" fill="#266c76" d="M 752.5,314.5 C 752.5,315.167 752.5,315.833 752.5,316.5C 751.5,316.5 750.5,316.5 749.5,316.5C 745.5,316.5 741.5,316.5 737.5,316.5C 742.056,314.558 747.056,313.892 752.5,314.5 Z"/></g>
<g><path style="opacity:1" fill="#477e87" d="M 621.5,316.5 C 615.619,318.375 609.619,320.042 603.5,321.5C 603.5,320.5 603.5,319.5 603.5,318.5C 609.626,318.311 615.626,317.644 621.5,316.5 Z"/></g>
<g><path style="opacity:1" fill="#5b8c95" d="M 810.5,319.5 C 810.5,320.833 809.833,321.5 808.5,321.5C 808.5,320.167 809.167,319.5 810.5,319.5 Z"/></g>
<g><path style="opacity:1" fill="#437c85" d="M 596.5,323.5 C 593.78,325.527 590.78,327.193 587.5,328.5C 589.67,325.576 592.67,323.909 596.5,323.5 Z"/></g>
<g><path style="opacity:1" fill="#4c838c" d="M 795.5,326.5 C 795.389,327.117 795.056,327.617 794.5,328C 792.527,328.495 790.527,328.662 788.5,328.5C 790.657,327.593 792.99,326.927 795.5,326.5 Z"/></g>
<g><path style="opacity:1" fill="#65939a" d="M 689.5,330.5 C 684.167,330.5 678.833,330.5 673.5,330.5C 660.173,331.277 646.839,331.944 633.5,332.5C 652.086,329.459 670.753,328.793 689.5,330.5 Z"/></g>
<g><path style="opacity:1" fill="#427c86" d="M 586.5,329.5 C 584.777,331.218 582.777,332.551 580.5,333.5C 581.446,330.687 583.446,329.354 586.5,329.5 Z"/></g>
<g><path style="opacity:1" fill="#37767f" d="M 673.5,330.5 C 678.833,330.5 684.167,330.5 689.5,330.5C 694.23,330.283 698.897,330.617 703.5,331.5C 703.5,331.833 703.5,332.167 703.5,332.5C 693.828,332.666 684.161,332.5 674.5,332C 673.944,331.617 673.611,331.117 673.5,330.5 Z"/></g>
<g><path style="opacity:1" fill="#51878f" d="M 788.5,328.5 C 785.647,329.877 782.647,331.044 779.5,332C 754.177,333.797 728.844,333.963 703.5,332.5C 703.5,332.167 703.5,331.833 703.5,331.5C 722.164,332.202 740.831,332.369 759.5,332C 769.282,331.676 778.948,330.509 788.5,328.5 Z"/></g>
<g><path style="opacity:1" fill="#629299" d="M 633.5,332.5 C 633.082,333.222 632.416,333.722 631.5,334C 628.854,334.497 626.187,334.664 623.5,334.5C 626.627,333.419 629.96,332.753 633.5,332.5 Z"/></g>
<g><path style="opacity:1" fill="#39767f" d="M 580.5,333.5 C 579.167,335.5 577.5,337.167 575.5,338.5C 575.833,335.5 577.5,333.833 580.5,333.5 Z"/></g>
<g><path style="opacity:1" fill="#588b94" d="M 622.5,334.5 C 621.365,336.213 619.698,336.88 617.5,336.5C 618.93,335.463 620.597,334.796 622.5,334.5 Z"/></g>
<g><path style="opacity:1" fill="#3d7982" d="M 610.5,338.5 C 610.047,339.458 609.381,340.292 608.5,341C 605.518,342.271 602.518,343.438 599.5,344.5C 602.518,341.377 606.184,339.377 610.5,338.5 Z"/></g>
<g><path style="opacity:1" fill="#769fa6" d="M 984.5,321.5 C 985.972,327.601 986.639,333.935 986.5,340.5C 986.639,347.065 985.972,353.399 984.5,359.5C 984.5,346.833 984.5,334.167 984.5,321.5 Z"/></g>
<g><path style="opacity:1" fill="#6a979e" d="M 575.5,338.5 C 574.974,340.23 573.974,341.564 572.5,342.5C 572.554,340.368 573.554,339.035 575.5,338.5 Z"/></g>
<g><path style="opacity:1" fill="#629199" d="M 422.5,344.5 C 423.117,344.611 423.617,344.944 424,345.5C 424.495,347.473 424.662,349.473 424.5,351.5C 423.593,349.343 422.927,347.01 422.5,344.5 Z"/></g>
<g><path style="opacity:1" fill="#4e848c" d="M 597.5,346.5 C 597.649,347.552 597.483,348.552 597,349.5C 594.966,350.721 593.133,352.055 591.5,353.5C 592.833,350.507 594.833,348.173 597.5,346.5 Z"/></g>
<g><path style="opacity:1" fill="#629299" d="M 565.5,353.5 C 565.5,354.833 564.833,355.5 563.5,355.5C 563.5,354.167 564.167,353.5 565.5,353.5 Z"/></g>
<g><path style="opacity:1" fill="#558991" d="M 424.5,352.5 C 425.117,352.611 425.617,352.944 426,353.5C 427.44,357.041 428.274,360.708 428.5,364.5C 426.595,360.784 425.261,356.784 424.5,352.5 Z"/></g>
<g><path style="opacity:1" fill="#68969d" d="M 563.5,357.5 C 563.573,359.027 562.906,360.027 561.5,360.5C 561.285,358.821 561.952,357.821 563.5,357.5 Z"/></g>
<g><path style="opacity:1" fill="#6b98a0" d="M 561.5,361.5 C 561.771,363.38 561.104,364.713 559.5,365.5C 559.66,363.847 560.326,362.514 561.5,361.5 Z"/></g>
<g><path style="opacity:1" fill="#32727c" d="M 587.5,360.5 C 586.894,365.033 585.227,369.033 582.5,372.5C 583.106,367.967 584.773,363.967 587.5,360.5 Z"/></g>
<g><path style="opacity:1" fill="#346f79" d="M 428.5,365.5 C 429.5,365.5 430.5,365.5 431.5,365.5C 431.833,368.167 432.167,370.833 432.5,373.5C 430.613,371.211 429.279,368.545 428.5,365.5 Z"/></g>
<g><path style="opacity:1" fill="#6f9aa1" d="M 984.5,367.5 C 984.598,369.553 983.931,371.22 982.5,372.5C 982.077,370.219 982.744,368.552 984.5,367.5 Z"/></g>
<g><path style="opacity:1" fill="#5a8c94" d="M 559.5,367.5 C 558.242,371.036 557.409,374.703 557,378.5C 556.617,379.056 556.117,379.389 555.5,379.5C 555.573,374.927 556.907,370.927 559.5,367.5 Z"/></g>
<g><path style="opacity:1" fill="#79a1a8" d="M 432.5,376.5 C 433.492,376.328 434.158,376.662 434.5,377.5C 434.5,377.833 434.5,378.167 434.5,378.5C 433.167,378.5 432.5,377.833 432.5,376.5 Z"/></g>
<g><path style="opacity:1" fill="#447d86" d="M 582.5,372.5 C 582.288,378.325 580.288,383.325 576.5,387.5C 577.467,381.839 579.467,376.839 582.5,372.5 Z"/></g>
<g><path style="opacity:1" fill="#36727c" d="M 434.5,377.5 C 437.396,380.905 439.063,384.905 439.5,389.5C 437.057,386.274 435.39,382.607 434.5,378.5C 434.5,378.167 434.5,377.833 434.5,377.5 Z"/></g>
<g><path style="opacity:1" fill="#709ba1" d="M 982.5,376.5 C 982.741,378.898 982.074,380.898 980.5,382.5C 980.054,379.99 980.72,377.99 982.5,376.5 Z"/></g>
<g><path style="opacity:1" fill="#5d8e96" d="M 555.5,380.5 C 554.479,388.729 552.812,396.729 550.5,404.5C 551.31,398.859 552.144,393.193 553,387.5C 553.698,384.996 554.531,382.663 555.5,380.5 Z"/></g>
<g><path style="opacity:1" fill="#639299" d="M 439.5,389.5 C 441.048,389.821 441.715,390.821 441.5,392.5C 440.094,392.027 439.427,391.027 439.5,389.5 Z"/></g>
<g><path style="opacity:1" fill="#68969c" d="M 441.5,393.5 C 443.048,393.821 443.715,394.821 443.5,396.5C 442.599,395.71 441.932,394.71 441.5,393.5 Z"/></g>
<g><path style="opacity:1" fill="#5f8f97" d="M 979.5,387.5 C 979.117,390.811 978.117,393.811 976.5,396.5C 976.557,392.971 977.557,389.971 979.5,387.5 Z"/></g>
<g><path style="opacity:1" fill="#568b93" d="M 443.5,396.5 C 445.048,396.821 445.715,397.821 445.5,399.5C 444.599,398.71 443.932,397.71 443.5,396.5 Z"/></g>
<g><path style="opacity:1" fill="#417983" d="M 445.5,399.5 C 448.47,399.746 449.803,401.412 449.5,404.5C 447.937,403.055 446.604,401.389 445.5,399.5 Z"/></g>
<g><path style="opacity:1" fill="#276974" d="M 576.5,390.5 C 575.693,396.464 575.36,402.464 575.5,408.5C 574.5,408.5 573.5,408.5 572.5,408.5C 572.337,406.143 572.503,403.81 573,401.5C 573.959,397.66 575.125,393.993 576.5,390.5 Z"/></g>
<g><path style="opacity:1" fill="#4e848c" d="M 974.5,401.5 C 972.956,406.919 970.622,411.919 967.5,416.5C 969.053,411.065 971.386,406.065 974.5,401.5 Z"/></g>
<g><path style="opacity:1" fill="#33707b" d="M 451.5,406.5 C 452.5,406.5 453.5,406.5 454.5,406.5C 455.449,408.737 456.116,411.071 456.5,413.5C 454.1,411.704 452.433,409.37 451.5,406.5 Z"/></g>
<g><path style="opacity:1" fill="#548890" d="M 550.5,406.5 C 550.889,409.553 550.223,412.22 548.5,414.5C 547.964,411.302 548.631,408.635 550.5,406.5 Z"/></g>
<g><path style="opacity:1" fill="#759ea4" d="M 572.5,409.5 C 573.01,412.388 572.344,414.721 570.5,416.5C 570.41,413.848 571.076,411.515 572.5,409.5 Z"/></g>
<g><path style="opacity:1" fill="#467f88" d="M 456.5,413.5 C 459.5,413.833 461.167,415.5 461.5,418.5C 459.548,417.215 457.882,415.549 456.5,413.5 Z"/></g>
<g><path style="opacity:1" fill="#598d94" d="M 967.5,416.5 C 967.5,417.833 966.833,418.5 965.5,418.5C 965.5,417.167 966.167,416.5 967.5,416.5 Z"/></g>
<g><path style="opacity:1" fill="#5a8b93" d="M 461.5,418.5 C 464.264,418.999 465.931,420.665 466.5,423.5C 464.5,422.167 462.833,420.5 461.5,418.5 Z"/></g>
<g><path style="opacity:1" fill="#6d99a0" d="M 548.5,422.5 C 548.741,424.898 548.074,426.898 546.5,428.5C 546.025,425.918 546.692,423.918 548.5,422.5 Z"/></g>
<g><path style="opacity:1" fill="#498089" d="M 965.5,420.5 C 962.882,425.413 959.548,429.746 955.5,433.5C 957.831,429.168 960.164,424.835 962.5,420.5C 963.5,420.5 964.5,420.5 965.5,420.5 Z"/></g>
<g><path style="opacity:1" fill="#316e79" d="M 473.5,428.5 C 476.782,429.301 479.448,430.968 481.5,433.5C 478.197,432.849 475.53,431.182 473.5,428.5 Z"/></g>
<g><path style="opacity:1" fill="#609098" d="M 570.5,420.5 C 571.097,425.294 570.43,429.627 568.5,433.5C 568.884,428.99 569.551,424.657 570.5,420.5 Z"/></g>
<g><path style="opacity:1" fill="#588992" d="M 481.5,433.5 C 482.833,433.5 483.5,434.167 483.5,435.5C 482.167,435.5 481.5,434.833 481.5,433.5 Z"/></g>
<g><path style="opacity:1" fill="#316e78" d="M 491.5,439.5 C 494.482,439.963 497.482,440.296 500.5,440.5C 500.5,441.5 500.5,442.5 500.5,443.5C 497.088,442.925 494.088,441.592 491.5,439.5 Z"/></g>
<g><path style="opacity:1" fill="#3e7780" d="M 953.5,435.5 C 949.909,439.299 945.909,442.633 941.5,445.5C 941.48,443.857 942.147,442.524 943.5,441.5C 946.875,439.434 950.208,437.434 953.5,435.5 Z"/></g>
<g><path style="opacity:1" fill="#6f9aa1" d="M 546.5,437.5 C 546.435,440.428 545.768,443.095 544.5,445.5C 543.964,442.302 544.631,439.635 546.5,437.5 Z"/></g>
<g><path style="opacity:1" fill="#4a828a" d="M 500.5,443.5 C 509.466,445.295 518.466,447.295 527.5,449.5C 527.5,449.833 527.5,450.167 527.5,450.5C 518.067,449.542 509.067,447.208 500.5,443.5 Z"/></g>
<g><path style="opacity:1" fill="#609299" d="M 941.5,445.5 C 940.71,446.401 939.71,447.068 938.5,447.5C 938.821,445.952 939.821,445.285 941.5,445.5 Z"/></g>
<g><path style="opacity:1" fill="#1d6772" d="M 546.5,433.5 C 546.5,434.833 546.5,436.167 546.5,437.5C 544.631,439.635 543.964,442.302 544.5,445.5C 544.5,447.167 544.5,448.833 544.5,450.5C 538.833,450.5 533.167,450.5 527.5,450.5C 527.5,450.167 527.5,449.833 527.5,449.5C 532.833,449.5 538.167,449.5 543.5,449.5C 543.334,444.821 543.501,440.155 544,435.5C 544.417,434.244 545.25,433.577 546.5,433.5 Z"/></g>
<g><path style="opacity:1" fill="#7ba3aa" d="M 931.5,450.5 C 931.5,451.833 930.833,452.5 929.5,452.5C 929.5,451.167 930.167,450.5 931.5,450.5 Z"/></g>
<g><path style="opacity:1" fill="#7ca2a9" d="M 925.5,452.5 C 925.5,453.833 924.833,454.5 923.5,454.5C 923.5,453.167 924.167,452.5 925.5,452.5 Z"/></g>
<g><path style="opacity:1" fill="#50858e" d="M 919.5,454.5 C 916.155,456.217 912.489,456.884 908.5,456.5C 908.611,455.883 908.944,455.383 909.5,455C 912.817,454.502 916.15,454.335 919.5,454.5 Z"/></g>
<g><path style="opacity:1" fill="#3a7880" d="M 671.5,469.5 C 723.669,469.168 775.669,469.501 827.5,470.5C 827.5,470.833 827.5,471.167 827.5,471.5C 775.156,472.162 723.156,471.496 671.5,469.5 Z"/></g>
<g><path style="opacity:1" fill="#286c76" d="M 775.5,488.5 C 767.847,485.873 760.18,485.873 752.5,488.5C 752.577,487.25 753.244,486.417 754.5,486C 761.167,485.333 767.833,485.333 774.5,486C 775.252,486.671 775.586,487.504 775.5,488.5 Z"/></g>
<g><path style="opacity:1" fill="#3f7982" d="M 747.5,490.5 C 746.421,492.543 744.754,493.876 742.5,494.5C 742.5,493.5 742.5,492.5 742.5,491.5C 744.216,491.371 745.883,491.038 747.5,490.5 Z"/></g>
<g><path style="opacity:1" fill="#4a818a" d="M 568.5,435.5 C 568.333,454.836 568.5,474.17 569,493.5C 569.333,493.167 569.667,492.833 570,492.5C 570.5,498.825 570.666,505.158 570.5,511.5C 569.594,507.322 568.76,502.988 568,498.5C 567.171,477.329 567.337,456.329 568.5,435.5 Z"/></g>
<g><path style="opacity:1" fill="#5f8f96" d="M 786.5,494.5 C 787.833,494.5 788.5,495.167 788.5,496.5C 788.5,495.167 787.833,494.5 786.5,494.5 Z"/></g>
<g><path style="opacity:1" fill="#5b8d95" d="M 788.5,496.5 C 789.833,496.5 790.5,497.167 790.5,498.5C 790.5,497.167 789.833,496.5 788.5,496.5 Z"/></g>
<g><path style="opacity:1" fill="#639299" d="M 740.5,496.5 C 740.144,498.19 739.144,499.19 737.5,499.5C 737.856,497.81 738.856,496.81 740.5,496.5 Z"/></g>
<g><path style="opacity:1" fill="#7fa6ac" d="M 737.5,501.5 C 737.5,502.833 736.833,503.5 735.5,503.5C 735.833,502.5 736.5,501.833 737.5,501.5 Z"/></g>
<g><path style="opacity:1" fill="#5d8e96" d="M 735.5,503.5 C 735.02,506.443 734.02,509.11 732.5,511.5C 732.144,508.224 733.144,505.557 735.5,503.5 Z"/></g>
<g><path style="opacity:1" fill="#588a92" d="M 793.5,503.5 C 794.978,504.448 795.978,505.781 796.5,507.5C 796.5,508.833 796.5,510.167 796.5,511.5C 794.903,509.152 793.903,506.486 793.5,503.5 Z"/></g>
<g><path style="opacity:1" fill="#34747e" d="M 796.5,507.5 C 797.306,511.002 797.973,514.669 798.5,518.5C 798.122,520.717 797.455,522.717 796.5,524.5C 796.5,520.167 796.5,515.833 796.5,511.5C 796.5,510.167 796.5,508.833 796.5,507.5 Z"/></g>
<g><path style="opacity:1" fill="#558991" d="M 827.5,470.5 C 828.662,488.995 828.829,507.662 828,526.5C 827.324,536.275 825.991,545.942 824,555.5C 822.951,557.384 821.451,558.718 819.5,559.5C 820.305,557.787 821.305,556.121 822.5,554.5C 826.988,527.125 828.655,499.458 827.5,471.5C 827.5,471.167 827.5,470.833 827.5,470.5 Z"/></g>
<g><path style="opacity:1" fill="#709ba2" d="M 570.5,515.5 C 572.344,517.279 573.01,519.612 572.5,522.5C 571.388,520.401 570.721,518.067 570.5,515.5 Z"/></g>
<g><path style="opacity:1" fill="#36747e" d="M 732.5,511.5 C 732.5,515.833 732.5,520.167 732.5,524.5C 731.2,522.777 730.533,520.61 730.5,518C 730.533,515.39 731.2,513.223 732.5,511.5 Z"/></g>
<g><path style="opacity:1" fill="#629198" d="M 572.5,525.5 C 574.213,526.635 574.88,528.302 574.5,530.5C 573.069,529.22 572.402,527.553 572.5,525.5 Z"/></g>
<g><path style="opacity:1" fill="#609198" d="M 732.5,525.5 C 733.537,526.93 734.204,528.597 734.5,530.5C 732.744,529.448 732.077,527.781 732.5,525.5 Z"/></g>
<g><path style="opacity:1" fill="#306f7a" d="M 574.5,532.5 C 575.5,532.5 576.5,532.5 577.5,532.5C 577.5,535.5 577.5,538.5 577.5,541.5C 576.265,538.67 575.265,535.67 574.5,532.5 Z"/></g>
<g><path style="opacity:1" fill="#3a767f" d="M 796.5,525.5 C 796.453,528.568 795.953,531.568 795,534.5C 794.092,536.439 792.592,537.439 790.5,537.5C 792.977,533.704 794.977,529.704 796.5,525.5 Z"/></g>
<g><path style="opacity:1" fill="#4e848d" d="M 734.5,530.5 C 735.912,532.604 736.912,534.937 737.5,537.5C 735.273,535.771 734.273,533.438 734.5,530.5 Z"/></g>
<g><path style="opacity:1" fill="#548890" d="M 741.5,541.5 C 744.473,543.147 747.14,545.147 749.5,547.5C 745.91,546.558 743.243,544.558 741.5,541.5 Z"/></g>
<g><path style="opacity:1" fill="#548890" d="M 577.5,541.5 C 579.245,543.033 580.245,545.033 580.5,547.5C 578.621,546.105 577.621,544.105 577.5,541.5 Z"/></g>
<g><path style="opacity:1" fill="#598c93" d="M 580.5,549.5 C 581.833,549.5 582.5,550.167 582.5,551.5C 581.167,551.5 580.5,550.833 580.5,549.5 Z"/></g>
<g><path style="opacity:1" fill="#6d99a0" d="M 749.5,547.5 C 755.585,549.513 761.918,550.513 768.5,550.5C 766.052,551.473 763.385,551.806 760.5,551.5C 756.321,551.258 752.655,549.925 749.5,547.5 Z"/></g>
<g><path style="opacity:1" fill="#387680" d="M 786.5,542.5 C 784.394,545.802 781.394,548.136 777.5,549.5C 771.874,552.11 766.207,552.777 760.5,551.5C 763.385,551.806 766.052,551.473 768.5,550.5C 774.987,549.215 780.987,546.548 786.5,542.5 Z"/></g>
<g><path style="opacity:1" fill="#629299" d="M 584.5,554.5 C 585.89,555.899 586.89,557.566 587.5,559.5C 585.273,558.599 584.273,556.933 584.5,554.5 Z"/></g>
<g><path style="opacity:1" fill="#457e87" d="M 817.5,561.5 C 814.669,563.417 811.669,565.083 808.5,566.5C 810.491,563.206 813.491,561.539 817.5,561.5 Z"/></g>
<g><path style="opacity:1" fill="#51868e" d="M 591.5,563.5 C 593.5,563.5 594.5,564.5 594.5,566.5C 593.167,565.833 592.167,564.833 591.5,563.5 Z"/></g>
<g><path style="opacity:1" fill="#5c8d95" d="M 595.5,566.5 C 596.833,566.5 597.5,567.167 597.5,568.5C 596.167,568.5 595.5,567.833 595.5,566.5 Z"/></g>
<g><path style="opacity:1" fill="#50848e" d="M 807.5,566.5 C 807.027,567.906 806.027,568.573 804.5,568.5C 804.821,566.952 805.821,566.285 807.5,566.5 Z"/></g>
<g><path style="opacity:1" fill="#477f88" d="M 597.5,568.5 C 603.342,571.253 609.009,574.253 614.5,577.5C 608.147,575.823 602.481,572.823 597.5,568.5 Z"/></g>
<g><path style="opacity:1" fill="#619199" d="M 803.5,568.5 C 803.027,569.906 802.027,570.573 800.5,570.5C 800.821,568.952 801.821,568.285 803.5,568.5 Z"/></g>
<g><path style="opacity:1" fill="#6b989f" d="M 800.5,570.5 C 798.396,571.912 796.063,572.912 793.5,573.5C 795.185,571.182 797.519,570.182 800.5,570.5 Z"/></g>
<g><path style="opacity:1" fill="#3d7882" d="M 790.5,574.5 C 783.895,577.616 776.895,579.949 769.5,581.5C 769.5,580.5 769.5,579.5 769.5,578.5C 776.604,577.656 783.604,576.323 790.5,574.5 Z"/></g>
<g><path style="opacity:1" fill="#2d6e78" d="M 614.5,577.5 C 618.976,578.088 623.309,579.255 627.5,581C 628.252,581.671 628.586,582.504 628.5,583.5C 623.409,582.359 618.742,580.359 614.5,577.5 Z"/></g>
<g><path style="opacity:1" fill="#5c8c95" d="M 766.5,581.5 C 765.365,583.213 763.698,583.88 761.5,583.5C 762.635,581.787 764.302,581.12 766.5,581.5 Z"/></g>
<g><path style="opacity:1" fill="#3f7a84" d="M 631.5,583.5 C 634.082,583.025 636.082,583.692 637.5,585.5C 635.102,585.741 633.102,585.074 631.5,583.5 Z"/></g>
<g><path style="opacity:1" fill="#53878f" d="M 757.5,583.5 C 756.22,584.931 754.553,585.598 752.5,585.5C 753.552,583.744 755.219,583.077 757.5,583.5 Z"/></g>
<g><path style="opacity:1" fill="#51868e" d="M 748.5,585.5 C 745.781,586.913 742.781,587.58 739.5,587.5C 741.988,585.612 744.988,584.945 748.5,585.5 Z"/></g>
<g><path style="opacity:1" fill="#5b8d95" d="M 638.5,585.5 C 643.963,585.689 649.296,586.355 654.5,587.5C 654.5,587.833 654.5,588.167 654.5,588.5C 648.816,588.739 643.482,587.739 638.5,585.5 Z"/></g>
<g><path style="opacity:1" fill="#4a818a" d="M 654.5,588.5 C 654.5,588.167 654.5,587.833 654.5,587.5C 674.769,589.296 695.103,589.963 715.5,589.5C 715.5,589.833 715.5,590.167 715.5,590.5C 695.021,592.194 674.687,591.528 654.5,588.5 Z"/></g>
<g><path style="opacity:1" fill="#6a979e" d="M 739.5,587.5 C 731.728,589.245 723.728,590.245 715.5,590.5C 715.5,590.167 715.5,589.833 715.5,589.5C 723.42,588.07 731.42,587.403 739.5,587.5 Z"/></g>
<g><path style="opacity:1" fill="#099d9b" d="M 637.5,693.5 C 638.163,691.527 638.496,689.361 638.5,687C 636.691,669.552 636.024,652.052 636.5,634.5C 638.833,634.5 641.167,634.5 643.5,634.5C 643.5,658.5 643.5,682.5 643.5,706.5C 638.51,707.305 634.677,705.638 632,701.5C 621.404,683.865 610.904,666.198 600.5,648.5C 599.5,667.822 599.167,687.155 599.5,706.5C 596.833,706.5 594.167,706.5 591.5,706.5C 591.5,682.5 591.5,658.5 591.5,634.5C 594.833,634.5 598.167,634.5 601.5,634.5C 605.64,642.832 610.473,650.832 616,658.5C 622.725,670.653 629.892,682.32 637.5,693.5 Z"/></g>
<g><path style="opacity:1" fill="#15a09e" d="M 660.5,634.5 C 663.5,634.5 666.5,634.5 669.5,634.5C 669.5,655.833 669.5,677.167 669.5,698.5C 679.19,698.168 688.856,698.502 698.5,699.5C 699.78,701.702 699.78,703.868 698.5,706C 685.924,706.821 673.424,706.655 661,705.5C 660.5,681.836 660.333,658.169 660.5,634.5 Z"/></g>
<g><path style="opacity:1" fill="#089c9a" d="M 743.5,634.5 C 743.5,636.5 743.5,638.5 743.5,640.5C 736.245,640.187 729.079,640.52 722,641.5C 721.5,662.831 721.333,684.164 721.5,705.5C 719.167,705.5 716.833,705.5 714.5,705.5C 713.861,685.208 713.861,664.875 714.5,644.5C 714.291,643.914 713.957,643.414 713.5,643C 706.833,642.667 700.167,642.333 693.5,642C 692.565,639.619 692.232,637.119 692.5,634.5C 709.5,634.5 726.5,634.5 743.5,634.5 Z"/></g>
<g><path style="opacity:1" fill="#17a09e" d="M 754.5,634.5 C 757.167,634.5 759.833,634.5 762.5,634.5C 762.168,645.853 762.501,657.186 763.5,668.5C 771.931,656.899 780.931,645.733 790.5,635C 793.882,634.176 797.216,634.343 800.5,635.5C 792.354,645.48 784.021,655.313 775.5,665C 784.385,678.61 793.385,692.11 802.5,705.5C 799.167,706.833 795.833,706.833 792.5,705.5C 784.935,694.236 777.435,682.903 770,671.5C 767.255,672.952 764.922,674.952 763,677.5C 762.5,687.161 762.334,696.828 762.5,706.5C 759.552,706.777 756.719,706.444 754,705.5C 753.178,681.761 753.344,658.094 754.5,634.5 Z"/></g>
<g><path style="opacity:1" fill="#30adac" d="M 636.5,634.5 C 636.024,652.052 636.691,669.552 638.5,687C 638.496,689.361 638.163,691.527 637.5,693.5C 635.334,673.727 635.001,654.06 636.5,634.5 Z"/></g>
<g><path style="opacity:1" fill="#23aaa8" d="M 743.5,634.5 C 746.002,636.799 746.002,639.299 743.5,642C 736.586,642.186 729.753,642.686 723,643.5C 722.5,664.497 722.333,685.497 722.5,706.5C 719.615,706.806 716.948,706.473 714.5,705.5C 716.833,705.5 719.167,705.5 721.5,705.5C 721.333,684.164 721.5,662.831 722,641.5C 729.079,640.52 736.245,640.187 743.5,640.5C 743.5,638.5 743.5,636.5 743.5,634.5 Z"/></g>
</svg>
